<?xml version="1.0" encoding="UTF-8" standalone="no"?>
<!DOCTYPE svg PUBLIC "-//W3C//DTD SVG 1.1//EN" "http://www.w3.org/Graphics/SVG/1.1/DTD/svg11.dtd">
<svg width="100%" height="100%" viewBox="0 0 24 25" version="1.1" xmlns="http://www.w3.org/2000/svg" xmlns:xlink="http://www.w3.org/1999/xlink" xml:space="preserve" xmlns:serif="http://www.serif.com/" style="fill-rule:evenodd;clip-rule:evenodd;stroke-linejoin:round;stroke-miterlimit:2;">
    <g transform="matrix(1,0,0,1,-2352,-1296)">
        <g id="_1-moon-icon" serif:id="1-moon-icon" transform="matrix(0.0166431,0,0,0.0166667,2306.83,1296.88)">
            <rect x="2714.03" y="0" width="1442.04" height="1440" style="fill:none;"/>
            <g transform="matrix(64.598,0,0,64.5065,-149275,-83717.5)">
                <path d="M2374.47,1303.63L2374.47,1314.33C2374.47,1314.79 2374.09,1315.17 2373.63,1315.17L2354.37,1315.17C2353.91,1315.17 2353.53,1314.79 2353.53,1314.33L2353.53,1303.63C2353.53,1303.16 2353.91,1302.79 2354.37,1302.79L2373.63,1302.79C2374.09,1302.79 2374.47,1303.16 2374.47,1303.63Z"/>
            </g>
            <g transform="matrix(49.5644,0,0,49.4942,-113901,-64036.2)">
                <path d="M2356.14,1301.14C2356.88,1301.14 2357.47,1301.73 2357.47,1302.47C2357.47,1303.2 2356.88,1303.8 2356.14,1303.8C2355.41,1303.8 2354.81,1303.2 2354.81,1302.47C2354.81,1301.73 2355.41,1301.14 2356.14,1301.14ZM2359.88,1301.14C2360.61,1301.14 2361.21,1301.73 2361.21,1302.47C2361.21,1303.2 2360.61,1303.8 2359.88,1303.8C2359.14,1303.8 2358.55,1303.2 2358.55,1302.47C2358.55,1301.73 2359.14,1301.14 2359.88,1301.14ZM2363.61,1301.14C2364.35,1301.14 2364.94,1301.73 2364.94,1302.47C2364.94,1303.2 2364.35,1303.8 2363.61,1303.8C2362.88,1303.8 2362.28,1303.2 2362.28,1302.47C2362.28,1301.73 2362.88,1301.14 2363.61,1301.14ZM2367.35,1301.14C2368.08,1301.14 2368.68,1301.73 2368.68,1302.47C2368.68,1303.2 2368.08,1303.8 2367.35,1303.8C2366.61,1303.8 2366.02,1303.2 2366.02,1302.47C2366.02,1301.73 2366.61,1301.14 2367.35,1301.14ZM2371.08,1301.14C2371.81,1301.14 2372.41,1301.73 2372.41,1302.47C2372.41,1303.2 2371.81,1303.8 2371.08,1303.8C2370.35,1303.8 2369.75,1303.2 2369.75,1302.47C2369.75,1301.73 2370.35,1301.14 2371.08,1301.14ZM2374.81,1301.14C2375.55,1301.14 2376.14,1301.73 2376.14,1302.47C2376.14,1303.2 2375.55,1303.8 2374.81,1303.8C2374.08,1303.8 2373.48,1303.2 2373.48,1302.47C2373.48,1301.73 2374.08,1301.14 2374.81,1301.14ZM2378.55,1301.14C2379.28,1301.14 2379.88,1301.73 2379.88,1302.47C2379.88,1303.2 2379.28,1303.8 2378.55,1303.8C2377.81,1303.8 2377.22,1303.2 2377.22,1302.47C2377.22,1301.73 2377.81,1301.14 2378.55,1301.14ZM2356.14,1305.07C2356.88,1305.07 2357.47,1305.66 2357.47,1306.4C2357.47,1307.13 2356.88,1307.73 2356.14,1307.73C2355.41,1307.73 2354.81,1307.13 2354.81,1306.4C2354.81,1305.66 2355.41,1305.07 2356.14,1305.07ZM2359.88,1305.07C2360.61,1305.07 2361.21,1305.66 2361.21,1306.4C2361.21,1307.13 2360.61,1307.73 2359.88,1307.73C2359.14,1307.73 2358.55,1307.13 2358.55,1306.4C2358.55,1305.66 2359.14,1305.07 2359.88,1305.07ZM2363.61,1305.07C2364.35,1305.07 2364.94,1305.66 2364.94,1306.4C2364.94,1307.13 2364.35,1307.73 2363.61,1307.73C2362.88,1307.73 2362.28,1307.13 2362.28,1306.4C2362.28,1305.66 2362.88,1305.07 2363.61,1305.07ZM2367.35,1305.07C2368.08,1305.07 2368.68,1305.66 2368.68,1306.4C2368.68,1307.13 2368.08,1307.73 2367.35,1307.73C2366.61,1307.73 2366.02,1307.13 2366.02,1306.4C2366.02,1305.66 2366.61,1305.07 2367.35,1305.07ZM2371.08,1305.07C2371.81,1305.07 2372.41,1305.66 2372.41,1306.4C2372.41,1307.13 2371.81,1307.73 2371.08,1307.73C2370.35,1307.73 2369.75,1307.13 2369.75,1306.4C2369.75,1305.66 2370.35,1305.07 2371.08,1305.07ZM2374.81,1305.07C2375.55,1305.07 2376.14,1305.66 2376.14,1306.4C2376.14,1307.13 2375.55,1307.73 2374.81,1307.73C2374.08,1307.73 2373.48,1307.13 2373.48,1306.4C2373.48,1305.66 2374.08,1305.07 2374.81,1305.07ZM2378.55,1305.07C2379.28,1305.07 2379.88,1305.66 2379.88,1306.4C2379.88,1307.13 2379.28,1307.73 2378.55,1307.73C2377.81,1307.73 2377.22,1307.13 2377.22,1306.4C2377.22,1305.66 2377.81,1305.07 2378.55,1305.07ZM2356.14,1308.99C2356.88,1308.99 2357.47,1309.59 2357.47,1310.32C2357.47,1311.06 2356.88,1311.65 2356.14,1311.65C2355.41,1311.65 2354.81,1311.06 2354.81,1310.32C2354.81,1309.59 2355.41,1308.99 2356.14,1308.99ZM2359.88,1308.99C2360.61,1308.99 2361.21,1309.59 2361.21,1310.32C2361.21,1311.06 2360.61,1311.65 2359.88,1311.65C2359.14,1311.65 2358.55,1311.06 2358.55,1310.32C2358.55,1309.59 2359.14,1308.99 2359.88,1308.99ZM2363.61,1308.99C2364.35,1308.99 2364.94,1309.59 2364.94,1310.32C2364.94,1311.06 2364.35,1311.65 2363.61,1311.65C2362.88,1311.65 2362.28,1311.06 2362.28,1310.32C2362.28,1309.59 2362.88,1308.99 2363.61,1308.99ZM2367.35,1308.99C2368.08,1308.99 2368.68,1309.59 2368.68,1310.32C2368.68,1311.06 2368.08,1311.65 2367.35,1311.65C2366.61,1311.65 2366.02,1311.06 2366.02,1310.32C2366.02,1309.59 2366.61,1308.99 2367.35,1308.99ZM2371.08,1308.99C2371.81,1308.99 2372.41,1309.59 2372.41,1310.32C2372.41,1311.06 2371.81,1311.65 2371.08,1311.65C2370.35,1311.65 2369.75,1311.06 2369.75,1310.32C2369.75,1309.59 2370.35,1308.99 2371.08,1308.99ZM2374.81,1308.99C2375.55,1308.99 2376.14,1309.59 2376.14,1310.32C2376.14,1311.06 2375.55,1311.65 2374.81,1311.65C2374.08,1311.65 2373.48,1311.06 2373.48,1310.32C2373.48,1309.59 2374.08,1308.99 2374.81,1308.99ZM2378.55,1308.99C2379.28,1308.99 2379.88,1309.59 2379.88,1310.32C2379.88,1311.06 2379.28,1311.65 2378.55,1311.65C2377.81,1311.65 2377.22,1311.06 2377.22,1310.32C2377.22,1309.59 2377.81,1308.99 2378.55,1308.99ZM2356.14,1312.92C2356.88,1312.92 2357.47,1313.52 2357.47,1314.25C2357.47,1314.99 2356.88,1315.58 2356.14,1315.58C2355.41,1315.58 2354.81,1314.99 2354.81,1314.25C2354.81,1313.52 2355.41,1312.92 2356.14,1312.92ZM2359.88,1312.92C2360.61,1312.92 2361.21,1313.52 2361.21,1314.25C2361.21,1314.99 2360.61,1315.58 2359.88,1315.58C2359.14,1315.58 2358.55,1314.99 2358.55,1314.25C2358.55,1313.52 2359.14,1312.92 2359.88,1312.92ZM2363.61,1312.92C2364.35,1312.92 2364.94,1313.52 2364.94,1314.25C2364.94,1314.99 2364.35,1315.58 2363.61,1315.58C2362.88,1315.58 2362.28,1314.99 2362.28,1314.25C2362.28,1313.52 2362.88,1312.92 2363.61,1312.92ZM2367.35,1312.92C2368.08,1312.92 2368.68,1313.52 2368.68,1314.25C2368.68,1314.99 2368.08,1315.58 2367.35,1315.58C2366.61,1315.58 2366.02,1314.99 2366.02,1314.25C2366.02,1313.52 2366.61,1312.92 2367.35,1312.92ZM2371.08,1312.92C2371.81,1312.92 2372.41,1313.52 2372.41,1314.25C2372.41,1314.99 2371.81,1315.58 2371.08,1315.58C2370.35,1315.58 2369.75,1314.99 2369.75,1314.25C2369.75,1313.52 2370.35,1312.92 2371.08,1312.92ZM2374.81,1312.92C2375.55,1312.92 2376.14,1313.52 2376.14,1314.25C2376.14,1314.99 2375.55,1315.58 2374.81,1315.58C2374.08,1315.58 2373.48,1314.99 2373.48,1314.25C2373.48,1313.52 2374.08,1312.92 2374.81,1312.92ZM2378.55,1312.92C2379.28,1312.92 2379.88,1313.52 2379.88,1314.25C2379.88,1314.99 2379.28,1315.58 2378.55,1315.58C2377.81,1315.58 2377.22,1314.99 2377.22,1314.25C2377.22,1313.52 2377.81,1312.92 2378.55,1312.92Z" style="fill:white;"/>
            </g>
        </g>
    </g>
</svg>
