<?xml version="1.0" encoding="UTF-8" standalone="no"?>
<!DOCTYPE svg PUBLIC "-//W3C//DTD SVG 1.1//EN" "http://www.w3.org/Graphics/SVG/1.1/DTD/svg11.dtd">
<svg width="100%" height="100%" viewBox="0 0 24 24" version="1.1" xmlns="http://www.w3.org/2000/svg" xmlns:xlink="http://www.w3.org/1999/xlink" xml:space="preserve" xmlns:serif="http://www.serif.com/" style="fill-rule:evenodd;clip-rule:evenodd;stroke-linejoin:round;stroke-miterlimit:2;">
    <g transform="matrix(1,0,0,1,-2779,-1059)">
        <g id="brush-icon" transform="matrix(0.0166431,0,0,0.0166667,2733.83,1059)">
            <rect x="2714.03" y="0" width="1442.04" height="1440" style="fill:none;"/>
            <g transform="matrix(60.0851,0,0,60,2713.94,0)">
                <path d="M2.968,12.977C2.64,13.433 2.55,14.02 2.728,14.554L2.832,14.87C3.205,15.99 4.26,16.751 5.441,16.75L9.25,16.75L9.25,20C9.25,21.509 10.491,22.75 12,22.75C13.509,22.75 14.75,21.509 14.75,20L14.75,16.75L18.559,16.75C19.739,16.751 20.795,15.99 21.167,14.87L21.273,14.553C21.568,13.688 21.127,12.731 20.278,12.394L20.701,3.08C20.702,3.053 20.703,3.027 20.703,3C20.703,2.04 19.913,1.25 18.953,1.25L5.047,1.25C4.087,1.25 3.297,2.04 3.297,3C3.297,3.026 3.298,3.053 3.299,3.08L3.722,12.394C3.421,12.514 3.16,12.716 2.968,12.977ZM13.25,20C13.25,20.686 12.686,21.25 12,21.25C11.314,21.25 10.75,20.686 10.75,20L10.75,16.75L13.25,16.75L13.25,20ZM19.851,14.079L19.744,14.395C19.575,14.905 19.095,15.251 18.559,15.25L5.441,15.25C4.904,15.25 4.425,14.905 4.255,14.395L4.15,14.08C4.142,14.054 4.137,14.027 4.137,14C4.137,13.863 4.25,13.75 4.388,13.75C4.388,13.75 19.612,13.75 19.612,13.75C19.75,13.75 19.863,13.863 19.863,14.001C19.863,14.028 19.859,14.054 19.851,14.079ZM4.865,2.828C4.913,2.778 4.978,2.75 5.047,2.75L7.25,2.75L7.25,7C7.25,7.411 7.589,7.75 8,7.75C8.411,7.75 8.75,7.411 8.75,7L8.75,2.75L18.953,2.75C18.953,2.75 18.954,2.75 18.954,2.75C19.091,2.75 19.203,2.863 19.203,3C19.203,3.003 19.203,3.007 19.203,3.011L18.783,12.25L5.217,12.25L4.797,3.011C4.794,2.943 4.818,2.877 4.865,2.828Z" style="fill-rule:nonzero;"/>
            </g>
        </g>
    </g>
</svg>
