<?xml version="1.0" encoding="UTF-8" standalone="no"?>
<!DOCTYPE svg PUBLIC "-//W3C//DTD SVG 1.1//EN" "http://www.w3.org/Graphics/SVG/1.1/DTD/svg11.dtd">
<svg width="100%" height="100%" viewBox="0 0 24 24" version="1.1" xmlns="http://www.w3.org/2000/svg" xmlns:xlink="http://www.w3.org/1999/xlink" xml:space="preserve" xmlns:serif="http://www.serif.com/" style="fill-rule:evenodd;clip-rule:evenodd;stroke-linejoin:round;stroke-miterlimit:2;">
    <g transform="matrix(1,0,0,1,-2352,-987)">
        <g id="check-icon" transform="matrix(0.0166431,0,0,0.0166667,2306.83,987)">
            <rect x="2714.03" y="0" width="1442.04" height="1440" style="fill:none;"/>
            <g transform="matrix(12.2612,0,0,12.2438,2821.96,107.604)">
                <path d="M92.3,11C74.8,16.7 52.6,32 32,58.3L19.8,44.8C17.9,42.7 14.5,42.7 12.6,44.8L3.7,54.8C2,56.8 2.1,59.8 4,61.6L31.5,87.9C33.8,90.1 37.5,89.5 39.1,86.7C53.8,60.2 69.6,40.4 96.1,17.8C99.4,15 96.4,9.7 92.3,11Z" style="fill-rule:nonzero;"/>
            </g>
        </g>
    </g>
</svg>
