<?xml version="1.0" encoding="UTF-8" standalone="no"?>
<!DOCTYPE svg PUBLIC "-//W3C//DTD SVG 1.1//EN" "http://www.w3.org/Graphics/SVG/1.1/DTD/svg11.dtd">
<svg width="100%" height="100%" viewBox="0 0 68 69" version="1.1" xmlns="http://www.w3.org/2000/svg" xmlns:xlink="http://www.w3.org/1999/xlink" xml:space="preserve" xmlns:serif="http://www.serif.com/" style="fill-rule:evenodd;clip-rule:evenodd;stroke-linecap:round;stroke-linejoin:round;stroke-miterlimit:1.5;">
    <g transform="matrix(1,0,0,1,-3091,-4000)">
        <g id="clock" transform="matrix(0.0471553,0,0,0.0472222,2963.02,4000.04)">
            <rect x="2714.03" y="0" width="1442.04" height="1440" style="fill:none;"/>
            <g>
                <g transform="matrix(15.9204,0,0,15.8978,-52646.5,-53363.5)">
                    <circle cx="3553.18" cy="3371.39" r="7.471" style="fill:rgb(123,122,139);"/>
                </g>
                <g transform="matrix(6.61598,0,0,6.60661,-20072.7,-21553.5)">
                    <circle cx="3553.18" cy="3371.39" r="7.471" style="fill:rgb(123,122,139);"/>
                </g>
                <g transform="matrix(17.2832,1.74227,1.74475,17.072,-63631.1,-63352.4)">
                    <path d="M3538,3392L3552.39,3376.82" style="fill:none;stroke:rgb(123,122,139);stroke-width:3.36px;"/>
                </g>
                <g transform="matrix(17.9494,0,0,17.924,-60070,-60078.1)">
                    <path d="M3538,3362.27C3521.59,3362.27 3508.27,3375.59 3508.27,3392C3508.27,3408.41 3521.59,3421.73 3538,3421.73C3554.41,3421.73 3567.73,3408.41 3567.73,3392C3567.73,3375.59 3554.41,3362.27 3538,3362.27ZM3538,3370.54C3549.85,3370.54 3559.46,3380.15 3559.46,3392C3559.46,3403.85 3549.85,3413.46 3538,3413.46C3526.15,3413.46 3516.54,3403.85 3516.54,3392C3516.54,3380.15 3526.15,3370.54 3538,3370.54Z" style="fill:rgb(123,122,139);"/>
                    <clipPath id="_clip1">
                        <path d="M3538,3362.27C3521.59,3362.27 3508.27,3375.59 3508.27,3392C3508.27,3408.41 3521.59,3421.73 3538,3421.73C3554.41,3421.73 3567.73,3408.41 3567.73,3392C3567.73,3375.59 3554.41,3362.27 3538,3362.27ZM3538,3370.54C3549.85,3370.54 3559.46,3380.15 3559.46,3392C3559.46,3403.85 3549.85,3413.46 3538,3413.46C3526.15,3413.46 3516.54,3403.85 3516.54,3392C3516.54,3380.15 3526.15,3370.54 3538,3370.54Z"/>
                    </clipPath>
                    <g clip-path="url(#_clip1)">
                        <g transform="matrix(1.18146,0,0,1.18146,-627.829,-1903.95)">
                            <path d="M3493.47,4492.28L3526,4482.55L3554.55,4491.93C3535.95,4518.29 3515.33,4515 3493.47,4492.28Z" style="fill:rgb(58,57,65);"/>
                        </g>
                    </g>
                </g>
            </g>
        </g>
    </g>
</svg>
