<?xml version="1.0" encoding="UTF-8" standalone="no"?>
<!DOCTYPE svg PUBLIC "-//W3C//DTD SVG 1.1//EN" "http://www.w3.org/Graphics/SVG/1.1/DTD/svg11.dtd">
<svg width="100%" height="100%" viewBox="0 0 24 24" version="1.1" xmlns="http://www.w3.org/2000/svg" xmlns:xlink="http://www.w3.org/1999/xlink" xml:space="preserve" xmlns:serif="http://www.serif.com/" style="fill-rule:evenodd;clip-rule:evenodd;stroke-linecap:round;stroke-linejoin:bevel;stroke-miterlimit:1.5;">
    <g transform="matrix(1,0,0,1,-2779,-1249)">
        <g id="clock-icon" transform="matrix(0.0166431,0,0,0.0166667,2733.83,1249)">
            <rect x="2714.03" y="0" width="1442.04" height="1440" style="fill:none;"/>
            <g transform="matrix(60.0851,0,0,60,-164263,-74670)">
                <path d="M2791,1256.5L2785.48,1245.16" style="fill:none;stroke:black;stroke-width:1.2px;"/>
            </g>
            <g transform="matrix(66.0362,0,0,52.1003,-180872,-64978.5)">
                <path d="M2783.47,1261L2798.53,1261" style="fill:none;stroke:black;stroke-width:0.61px;stroke-linejoin:round;"/>
            </g>
            <g transform="matrix(0.790328,-0.359202,0.360222,0.790328,238.78,913.352)">
                <g transform="matrix(60.0851,0,0,60,-164263,-74940)">
                    <path d="M2780,1270.61C2780.21,1270.61 2780.39,1270.79 2780.39,1271C2780.39,1271.21 2780.21,1271.39 2780,1271.39C2779.79,1271.39 2779.61,1271.21 2779.61,1271C2779.61,1270.79 2779.79,1270.61 2780,1270.61Z"/>
                </g>
                <g transform="matrix(60.0851,0,0,60,-164114,-74940)">
                    <path d="M2780,1270.61C2780.21,1270.61 2780.39,1270.79 2780.39,1271C2780.39,1271.21 2780.21,1271.39 2780,1271.39C2779.79,1271.39 2779.61,1271.21 2779.61,1271C2779.61,1270.79 2779.79,1270.61 2780,1270.61Z"/>
                </g>
                <g transform="matrix(60.0851,0,0,60,-163965,-74940)">
                    <circle cx="2780" cy="1271" r="0.387"/>
                </g>
                <g transform="matrix(60.0851,0,0,60,-163817,-74940)">
                    <path d="M2780,1270.61C2780.21,1270.61 2780.39,1270.79 2780.39,1271C2780.39,1271.21 2780.21,1271.39 2780,1271.39C2779.79,1271.39 2779.61,1271.21 2779.61,1271C2779.61,1270.79 2779.79,1270.61 2780,1270.61Z"/>
                </g>
                <g transform="matrix(60.0851,0,0,60,-163668,-74940)">
                    <path d="M2780,1270.61C2780.21,1270.61 2780.39,1270.79 2780.39,1271C2780.39,1271.21 2780.21,1271.39 2780,1271.39C2779.79,1271.39 2779.61,1271.21 2779.61,1271C2779.61,1270.79 2779.79,1270.61 2780,1270.61Z"/>
                </g>
                <g transform="matrix(60.0851,0,0,60,-163520,-74940)">
                    <circle cx="2780" cy="1271" r="0.387"/>
                </g>
                <g transform="matrix(60.0851,0,0,60,-163371,-74940)">
                    <path d="M2780,1270.61C2780.21,1270.61 2780.39,1270.79 2780.39,1271C2780.39,1271.21 2780.21,1271.39 2780,1271.39C2779.79,1271.39 2779.61,1271.21 2779.61,1271C2779.61,1270.79 2779.79,1270.61 2780,1270.61Z"/>
                </g>
                <g transform="matrix(60.0851,0,0,60,-163223,-74940)">
                    <path d="M2780,1270.61C2780.21,1270.61 2780.39,1270.79 2780.39,1271C2780.39,1271.21 2780.21,1271.39 2780,1271.39C2779.79,1271.39 2779.61,1271.21 2779.61,1271C2779.61,1270.79 2779.79,1270.61 2780,1270.61Z"/>
                </g>
                <g transform="matrix(60.0851,0,0,60,-163074,-74940)">
                    <path d="M2780,1270.61C2780.21,1270.61 2780.39,1270.79 2780.39,1271C2780.39,1271.21 2780.21,1271.39 2780,1271.39C2779.79,1271.39 2779.61,1271.21 2779.61,1271C2779.61,1270.79 2779.79,1270.61 2780,1270.61Z"/>
                </g>
                <g transform="matrix(60.0851,0,0,60,-162926,-74940)">
                    <circle cx="2780" cy="1271" r="0.387"/>
                </g>
            </g>
            <g transform="matrix(0.790328,-0.359202,0.360222,0.790328,180.079,939.519)">
                <g transform="matrix(60.0851,0,0,60,-164114,-74940)">
                    <path d="M2780,1270.61C2780.21,1270.61 2780.39,1270.79 2780.39,1271C2780.39,1271.21 2780.21,1271.39 2780,1271.39C2779.79,1271.39 2779.61,1271.21 2779.61,1271C2779.61,1270.79 2779.79,1270.61 2780,1270.61Z"/>
                </g>
                <g transform="matrix(60.0851,0,0,60,-163965,-74940)">
                    <circle cx="2780" cy="1271" r="0.387"/>
                </g>
                <g transform="matrix(60.0851,0,0,60,-163817,-74940)">
                    <path d="M2780,1270.61C2780.21,1270.61 2780.39,1270.79 2780.39,1271C2780.39,1271.21 2780.21,1271.39 2780,1271.39C2779.79,1271.39 2779.61,1271.21 2779.61,1271C2779.61,1270.79 2779.79,1270.61 2780,1270.61Z"/>
                </g>
                <g transform="matrix(60.0851,0,0,60,-163668,-74940)">
                    <path d="M2780,1270.61C2780.21,1270.61 2780.39,1270.79 2780.39,1271C2780.39,1271.21 2780.21,1271.39 2780,1271.39C2779.79,1271.39 2779.61,1271.21 2779.61,1271C2779.61,1270.79 2779.79,1270.61 2780,1270.61Z"/>
                </g>
                <g transform="matrix(60.0851,0,0,60,-163520,-74940)">
                    <circle cx="2780" cy="1271" r="0.387"/>
                </g>
                <g transform="matrix(60.0851,0,0,60,-163371,-74940)">
                    <path d="M2780,1270.61C2780.21,1270.61 2780.39,1270.79 2780.39,1271C2780.39,1271.21 2780.21,1271.39 2780,1271.39C2779.79,1271.39 2779.61,1271.21 2779.61,1271C2779.61,1270.79 2779.79,1270.61 2780,1270.61Z"/>
                </g>
                <g transform="matrix(60.0851,0,0,60,-163223,-74940)">
                    <path d="M2780,1270.61C2780.21,1270.61 2780.39,1270.79 2780.39,1271C2780.39,1271.21 2780.21,1271.39 2780,1271.39C2779.79,1271.39 2779.61,1271.21 2779.61,1271C2779.61,1270.79 2779.79,1270.61 2780,1270.61Z"/>
                </g>
                <g transform="matrix(60.0851,0,0,60,-163074,-74940)">
                    <path d="M2780,1270.61C2780.21,1270.61 2780.39,1270.79 2780.39,1271C2780.39,1271.21 2780.21,1271.39 2780,1271.39C2779.79,1271.39 2779.61,1271.21 2779.61,1271C2779.61,1270.79 2779.79,1270.61 2780,1270.61Z"/>
                </g>
                <g transform="matrix(60.0851,0,0,60,-162926,-74940)">
                    <circle cx="2780" cy="1271" r="0.387"/>
                </g>
            </g>
            <g transform="matrix(0.789934,0.360066,-0.361088,0.789934,1184.73,-1562.27)">
                <g transform="matrix(60.0851,0,0,60,-164263,-74940)">
                    <circle cx="2780" cy="1271" r="0.387"/>
                </g>
                <g transform="matrix(60.0851,0,0,60,-164114,-74940)">
                    <path d="M2780,1270.61C2780.21,1270.61 2780.39,1270.79 2780.39,1271C2780.39,1271.21 2780.21,1271.39 2780,1271.39C2779.79,1271.39 2779.61,1271.21 2779.61,1271C2779.61,1270.79 2779.79,1270.61 2780,1270.61Z"/>
                </g>
                <g transform="matrix(60.0851,0,0,60,-163965,-74940)">
                    <path d="M2780,1270.61C2780.21,1270.61 2780.39,1270.79 2780.39,1271C2780.39,1271.21 2780.21,1271.39 2780,1271.39C2779.79,1271.39 2779.61,1271.21 2779.61,1271C2779.61,1270.79 2779.79,1270.61 2780,1270.61Z"/>
                </g>
                <g transform="matrix(60.0851,0,0,60,-163817,-74940)">
                    <path d="M2780,1270.61C2780.21,1270.61 2780.39,1270.79 2780.39,1271C2780.39,1271.21 2780.21,1271.39 2780,1271.39C2779.79,1271.39 2779.61,1271.21 2779.61,1271C2779.61,1270.79 2779.79,1270.61 2780,1270.61Z"/>
                </g>
                <g transform="matrix(60.0851,0,0,60,-163668,-74940)">
                    <circle cx="2780" cy="1271" r="0.387"/>
                </g>
                <g transform="matrix(60.0851,0,0,60,-163520,-74940)">
                    <path d="M2780,1270.61C2780.21,1270.61 2780.39,1270.79 2780.39,1271C2780.39,1271.21 2780.21,1271.39 2780,1271.39C2779.79,1271.39 2779.61,1271.21 2779.61,1271C2779.61,1270.79 2779.79,1270.61 2780,1270.61Z"/>
                </g>
                <g transform="matrix(60.0851,0,0,60,-163371,-74940)">
                    <circle cx="2780" cy="1271" r="0.387"/>
                </g>
                <g transform="matrix(60.0851,0,0,60,-163223,-74940)">
                    <path d="M2780,1270.61C2780.21,1270.61 2780.39,1270.79 2780.39,1271C2780.39,1271.21 2780.21,1271.39 2780,1271.39C2779.79,1271.39 2779.61,1271.21 2779.61,1271C2779.61,1270.79 2779.79,1270.61 2780,1270.61Z"/>
                </g>
                <g transform="matrix(60.0851,0,0,60,-163074,-74940)">
                    <path d="M2780,1270.61C2780.21,1270.61 2780.39,1270.79 2780.39,1271C2780.39,1271.21 2780.21,1271.39 2780,1271.39C2779.79,1271.39 2779.61,1271.21 2779.61,1271C2779.61,1270.79 2779.79,1270.61 2780,1270.61Z"/>
                </g>
                <g transform="matrix(60.0851,0,0,60,-162926,-74940)">
                    <path d="M2780,1270.61C2780.21,1270.61 2780.39,1270.79 2780.39,1271C2780.39,1271.21 2780.21,1271.39 2780,1271.39C2779.79,1271.39 2779.61,1271.21 2779.61,1271C2779.61,1270.79 2779.79,1270.61 2780,1270.61Z"/>
                </g>
            </g>
            <g transform="matrix(0.789934,0.360066,-0.361088,0.789934,1243.43,-1535.53)">
                <g transform="matrix(60.0851,0,0,60,-164263,-74940)">
                    <circle cx="2780" cy="1271" r="0.387"/>
                </g>
                <g transform="matrix(60.0851,0,0,60,-164114,-74940)">
                    <path d="M2780,1270.61C2780.21,1270.61 2780.39,1270.79 2780.39,1271C2780.39,1271.21 2780.21,1271.39 2780,1271.39C2779.79,1271.39 2779.61,1271.21 2779.61,1271C2779.61,1270.79 2779.79,1270.61 2780,1270.61Z"/>
                </g>
                <g transform="matrix(60.0851,0,0,60,-163965,-74940)">
                    <path d="M2780,1270.61C2780.21,1270.61 2780.39,1270.79 2780.39,1271C2780.39,1271.21 2780.21,1271.39 2780,1271.39C2779.79,1271.39 2779.61,1271.21 2779.61,1271C2779.61,1270.79 2779.79,1270.61 2780,1270.61Z"/>
                </g>
                <g transform="matrix(60.0851,0,0,60,-163817,-74940)">
                    <path d="M2780,1270.61C2780.21,1270.61 2780.39,1270.79 2780.39,1271C2780.39,1271.21 2780.21,1271.39 2780,1271.39C2779.79,1271.39 2779.61,1271.21 2779.61,1271C2779.61,1270.79 2779.79,1270.61 2780,1270.61Z"/>
                </g>
                <g transform="matrix(60.0851,0,0,60,-163668,-74940)">
                    <circle cx="2780" cy="1271" r="0.387"/>
                </g>
                <g transform="matrix(60.0851,0,0,60,-163520,-74940)">
                    <path d="M2780,1270.61C2780.21,1270.61 2780.39,1270.79 2780.39,1271C2780.39,1271.21 2780.21,1271.39 2780,1271.39C2779.79,1271.39 2779.61,1271.21 2779.61,1271C2779.61,1270.79 2779.79,1270.61 2780,1270.61Z"/>
                </g>
                <g transform="matrix(60.0851,0,0,60,-163371,-74940)">
                    <circle cx="2780" cy="1271" r="0.387"/>
                </g>
                <g transform="matrix(60.0851,0,0,60,-163223,-74940)">
                    <path d="M2780,1270.61C2780.21,1270.61 2780.39,1270.79 2780.39,1271C2780.39,1271.21 2780.21,1271.39 2780,1271.39C2779.79,1271.39 2779.61,1271.21 2779.61,1271C2779.61,1270.79 2779.79,1270.61 2780,1270.61Z"/>
                </g>
                <g transform="matrix(60.0851,0,0,60,-163074,-74940)">
                    <path d="M2780,1270.61C2780.21,1270.61 2780.39,1270.79 2780.39,1271C2780.39,1271.21 2780.21,1271.39 2780,1271.39C2779.79,1271.39 2779.61,1271.21 2779.61,1271C2779.61,1270.79 2779.79,1270.61 2780,1270.61Z"/>
                </g>
            </g>
            <g transform="matrix(2.77827,0,0,2.77433,235.666,-344.95)">
                <circle cx="1151.58" cy="383.858" r="34.194"/>
                <path d="M1151.58,349.664C1170.45,349.664 1185.77,364.986 1185.77,383.858C1185.77,402.73 1170.45,418.052 1151.58,418.052C1132.7,418.052 1117.38,402.73 1117.38,383.858C1117.38,364.986 1132.7,349.664 1151.58,349.664ZM1151.58,382.998C1151.1,382.998 1150.71,383.383 1150.71,383.858C1150.71,384.333 1151.1,384.719 1151.58,384.719C1152.05,384.719 1152.43,384.333 1152.43,383.858C1152.43,383.383 1152.05,382.998 1151.58,382.998Z" style="fill:rgb(35,31,32);"/>
            </g>
        </g>
    </g>
</svg>
