<?xml version="1.0" encoding="UTF-8" standalone="no"?>
<!DOCTYPE svg PUBLIC "-//W3C//DTD SVG 1.1//EN" "http://www.w3.org/Graphics/SVG/1.1/DTD/svg11.dtd">
<svg width="100%" height="100%" viewBox="0 0 24 25" version="1.1" xmlns="http://www.w3.org/2000/svg" xmlns:xlink="http://www.w3.org/1999/xlink" xml:space="preserve" xmlns:serif="http://www.serif.com/" style="fill-rule:evenodd;clip-rule:evenodd;stroke-linejoin:round;stroke-miterlimit:2;">
    <g transform="matrix(1,0,0,1,-2250,-1266)">
        <g id="clock-icon" transform="matrix(0.0166431,0,0,0.0166667,2204.83,1266.36)">
            <rect x="2714.03" y="0" width="1442.04" height="1440" style="fill:none;"/>
            <g transform="matrix(60.0851,0,0,60,-164243,-74559.4)">
                <path d="M2789.2,1255.46L2782.73,1255.46C2782.49,1255.46 2782.3,1255.27 2782.3,1255.03C2782.3,1254.8 2782.49,1254.61 2782.73,1254.61L2789.2,1254.61C2789.26,1254.31 2789.4,1254.05 2789.6,1253.83L2785,1244.18C2784.82,1243.81 2784.98,1243.36 2785.36,1243.18C2785.73,1243 2786.18,1243.16 2786.36,1243.54L2790.95,1253.18C2790.97,1253.18 2790.98,1253.18 2791,1253.18C2791.88,1253.18 2792.61,1253.79 2792.8,1254.61L2799.27,1254.61C2799.51,1254.61 2799.7,1254.8 2799.7,1255.03C2799.7,1255.27 2799.51,1255.46 2799.27,1255.46L2792.8,1255.46C2792.61,1256.27 2791.88,1256.88 2791,1256.88C2790.12,1256.88 2789.39,1256.27 2789.2,1255.46ZM2781.95,1258.45C2782.31,1258.28 2782.74,1258.44 2782.91,1258.8C2783.08,1259.16 2782.92,1259.6 2782.56,1259.76C2782.2,1259.93 2781.77,1259.78 2781.6,1259.41C2781.43,1259.05 2781.59,1258.62 2781.95,1258.45ZM2783.89,1257.55C2784.26,1257.38 2784.69,1257.54 2784.86,1257.9C2785.02,1258.26 2784.87,1258.69 2784.51,1258.86C2784.14,1259.03 2783.71,1258.87 2783.55,1258.51C2783.38,1258.15 2783.53,1257.72 2783.89,1257.55ZM2785.84,1256.64C2786.2,1256.47 2786.63,1256.63 2786.8,1256.99C2786.97,1257.35 2786.81,1257.78 2786.45,1257.95C2786.09,1258.12 2785.66,1257.96 2785.49,1257.6C2785.32,1257.24 2785.48,1256.81 2785.84,1256.64ZM2787.78,1255.74C2788.14,1255.57 2788.57,1255.72 2788.74,1256.09C2788.91,1256.45 2788.75,1256.88 2788.39,1257.05C2788.03,1257.21 2787.6,1257.06 2787.43,1256.7C2787.26,1256.33 2787.42,1255.9 2787.78,1255.74ZM2793.61,1253.02C2793.97,1252.85 2794.4,1253.01 2794.57,1253.37C2794.74,1253.73 2794.58,1254.16 2794.22,1254.33C2793.86,1254.5 2793.43,1254.34 2793.26,1253.98C2793.09,1253.62 2793.25,1253.19 2793.61,1253.02ZM2795.55,1252.11C2795.91,1251.94 2796.34,1252.1 2796.51,1252.46C2796.68,1252.82 2796.52,1253.25 2796.16,1253.42C2795.8,1253.59 2795.37,1253.43 2795.2,1253.07C2795.03,1252.71 2795.19,1252.28 2795.55,1252.11ZM2797.49,1251.2C2797.86,1251.04 2798.29,1251.19 2798.45,1251.56C2798.62,1251.92 2798.47,1252.35 2798.11,1252.52C2797.74,1252.68 2797.31,1252.53 2797.14,1252.17C2796.98,1251.81 2797.13,1251.37 2797.49,1251.2ZM2799.44,1250.3C2799.8,1250.13 2800.23,1250.29 2800.4,1250.65C2800.57,1251.01 2800.41,1251.44 2800.05,1251.61C2799.69,1251.78 2799.26,1251.62 2799.09,1251.26C2798.92,1250.9 2799.08,1250.47 2799.44,1250.3ZM2781.95,1251.61C2781.59,1251.44 2781.43,1251.01 2781.6,1250.65C2781.77,1250.29 2782.2,1250.13 2782.56,1250.3C2782.92,1250.47 2783.08,1250.9 2782.91,1251.26C2782.74,1251.62 2782.31,1251.78 2781.95,1251.61ZM2783.89,1252.52C2783.53,1252.35 2783.38,1251.92 2783.55,1251.56C2783.71,1251.19 2784.14,1251.04 2784.51,1251.2C2784.87,1251.37 2785.02,1251.81 2784.86,1252.17C2784.69,1252.53 2784.26,1252.68 2783.89,1252.52ZM2785.84,1253.42C2785.48,1253.25 2785.32,1252.82 2785.49,1252.46C2785.66,1252.1 2786.09,1251.94 2786.45,1252.11C2786.81,1252.28 2786.97,1252.71 2786.8,1253.07C2786.63,1253.43 2786.2,1253.59 2785.84,1253.42ZM2787.78,1254.33C2787.42,1254.16 2787.26,1253.73 2787.43,1253.37C2787.6,1253.01 2788.03,1252.85 2788.39,1253.02C2788.75,1253.19 2788.91,1253.62 2788.74,1253.98C2788.57,1254.34 2788.14,1254.5 2787.78,1254.33ZM2793.61,1257.05C2793.25,1256.88 2793.09,1256.45 2793.26,1256.09C2793.43,1255.72 2793.86,1255.57 2794.22,1255.74C2794.58,1255.9 2794.74,1256.33 2794.57,1256.7C2794.4,1257.06 2793.97,1257.21 2793.61,1257.05ZM2795.55,1257.95C2795.19,1257.78 2795.03,1257.35 2795.2,1256.99C2795.37,1256.63 2795.8,1256.47 2796.16,1256.64C2796.52,1256.81 2796.68,1257.24 2796.51,1257.6C2796.34,1257.96 2795.91,1258.12 2795.55,1257.95ZM2797.49,1258.86C2797.13,1258.69 2796.98,1258.26 2797.14,1257.9C2797.31,1257.54 2797.74,1257.38 2798.11,1257.55C2798.47,1257.72 2798.62,1258.15 2798.45,1258.51C2798.29,1258.87 2797.86,1259.03 2797.49,1258.86ZM2799.44,1259.76C2799.08,1259.6 2798.92,1259.16 2799.09,1258.8C2799.26,1258.44 2799.69,1258.28 2800.05,1258.45C2800.41,1258.62 2800.57,1259.05 2800.4,1259.41C2800.23,1259.78 2799.8,1259.93 2799.44,1259.76Z" style="fill:rgb(255,242,0);"/>
            </g>
            <g transform="matrix(60.0851,0,0,60,-164263,-74581.9)">
                <path d="M2789.2,1255.46L2782.73,1255.46C2782.49,1255.46 2782.3,1255.27 2782.3,1255.03C2782.3,1254.8 2782.49,1254.61 2782.73,1254.61L2789.2,1254.61C2789.26,1254.31 2789.4,1254.05 2789.6,1253.83L2785,1244.18C2784.82,1243.81 2784.98,1243.36 2785.36,1243.18C2785.73,1243 2786.18,1243.16 2786.36,1243.54L2790.95,1253.18C2790.97,1253.18 2790.98,1253.18 2791,1253.18C2791.88,1253.18 2792.61,1253.79 2792.8,1254.61L2799.27,1254.61C2799.51,1254.61 2799.7,1254.8 2799.7,1255.03C2799.7,1255.27 2799.51,1255.46 2799.27,1255.46L2792.8,1255.46C2792.61,1256.27 2791.88,1256.88 2791,1256.88C2790.12,1256.88 2789.39,1256.27 2789.2,1255.46ZM2781.95,1258.45C2782.31,1258.28 2782.74,1258.44 2782.91,1258.8C2783.08,1259.16 2782.92,1259.6 2782.56,1259.76C2782.2,1259.93 2781.77,1259.78 2781.6,1259.41C2781.43,1259.05 2781.59,1258.62 2781.95,1258.45ZM2783.89,1257.55C2784.26,1257.38 2784.69,1257.54 2784.86,1257.9C2785.02,1258.26 2784.87,1258.69 2784.51,1258.86C2784.14,1259.03 2783.71,1258.87 2783.55,1258.51C2783.38,1258.15 2783.53,1257.72 2783.89,1257.55ZM2785.84,1256.64C2786.2,1256.47 2786.63,1256.63 2786.8,1256.99C2786.97,1257.35 2786.81,1257.78 2786.45,1257.95C2786.09,1258.12 2785.66,1257.96 2785.49,1257.6C2785.32,1257.24 2785.48,1256.81 2785.84,1256.64ZM2787.78,1255.74C2788.14,1255.57 2788.57,1255.72 2788.74,1256.09C2788.91,1256.45 2788.75,1256.88 2788.39,1257.05C2788.03,1257.21 2787.6,1257.06 2787.43,1256.7C2787.26,1256.33 2787.42,1255.9 2787.78,1255.74ZM2793.61,1253.02C2793.97,1252.85 2794.4,1253.01 2794.57,1253.37C2794.74,1253.73 2794.58,1254.16 2794.22,1254.33C2793.86,1254.5 2793.43,1254.34 2793.26,1253.98C2793.09,1253.62 2793.25,1253.19 2793.61,1253.02ZM2795.55,1252.11C2795.91,1251.94 2796.34,1252.1 2796.51,1252.46C2796.68,1252.82 2796.52,1253.25 2796.16,1253.42C2795.8,1253.59 2795.37,1253.43 2795.2,1253.07C2795.03,1252.71 2795.19,1252.28 2795.55,1252.11ZM2797.49,1251.2C2797.86,1251.04 2798.29,1251.19 2798.45,1251.56C2798.62,1251.92 2798.47,1252.35 2798.11,1252.52C2797.74,1252.68 2797.31,1252.53 2797.14,1252.17C2796.98,1251.81 2797.13,1251.37 2797.49,1251.2ZM2799.44,1250.3C2799.8,1250.13 2800.23,1250.29 2800.4,1250.65C2800.57,1251.01 2800.41,1251.44 2800.05,1251.61C2799.69,1251.78 2799.26,1251.62 2799.09,1251.26C2798.92,1250.9 2799.08,1250.47 2799.44,1250.3ZM2781.95,1251.61C2781.59,1251.44 2781.43,1251.01 2781.6,1250.65C2781.77,1250.29 2782.2,1250.13 2782.56,1250.3C2782.92,1250.47 2783.08,1250.9 2782.91,1251.26C2782.74,1251.62 2782.31,1251.78 2781.95,1251.61ZM2783.89,1252.52C2783.53,1252.35 2783.38,1251.92 2783.55,1251.56C2783.71,1251.19 2784.14,1251.04 2784.51,1251.2C2784.87,1251.37 2785.02,1251.81 2784.86,1252.17C2784.69,1252.53 2784.26,1252.68 2783.89,1252.52ZM2785.84,1253.42C2785.48,1253.25 2785.32,1252.82 2785.49,1252.46C2785.66,1252.1 2786.09,1251.94 2786.45,1252.11C2786.81,1252.28 2786.97,1252.71 2786.8,1253.07C2786.63,1253.43 2786.2,1253.59 2785.84,1253.42ZM2787.78,1254.33C2787.42,1254.16 2787.26,1253.73 2787.43,1253.37C2787.6,1253.01 2788.03,1252.85 2788.39,1253.02C2788.75,1253.19 2788.91,1253.62 2788.74,1253.98C2788.57,1254.34 2788.14,1254.5 2787.78,1254.33ZM2793.61,1257.05C2793.25,1256.88 2793.09,1256.45 2793.26,1256.09C2793.43,1255.72 2793.86,1255.57 2794.22,1255.74C2794.58,1255.9 2794.74,1256.33 2794.57,1256.7C2794.4,1257.06 2793.97,1257.21 2793.61,1257.05ZM2795.55,1257.95C2795.19,1257.78 2795.03,1257.35 2795.2,1256.99C2795.37,1256.63 2795.8,1256.47 2796.16,1256.64C2796.52,1256.81 2796.68,1257.24 2796.51,1257.6C2796.34,1257.96 2795.91,1258.12 2795.55,1257.95ZM2797.49,1258.86C2797.13,1258.69 2796.98,1258.26 2797.14,1257.9C2797.31,1257.54 2797.74,1257.38 2798.11,1257.55C2798.47,1257.72 2798.62,1258.15 2798.45,1258.51C2798.29,1258.87 2797.86,1259.03 2797.49,1258.86ZM2799.44,1259.76C2799.08,1259.6 2798.92,1259.16 2799.09,1258.8C2799.26,1258.44 2799.69,1258.28 2800.05,1258.45C2800.41,1258.62 2800.57,1259.05 2800.4,1259.41C2800.23,1259.78 2799.8,1259.93 2799.44,1259.76Z"/>
            </g>
        </g>
    </g>
</svg>
