<?xml version="1.0" encoding="UTF-8" standalone="no"?>
<!DOCTYPE svg PUBLIC "-//W3C//DTD SVG 1.1//EN" "http://www.w3.org/Graphics/SVG/1.1/DTD/svg11.dtd">
<svg width="100%" height="100%" viewBox="0 0 24 24" version="1.1" xmlns="http://www.w3.org/2000/svg" xmlns:xlink="http://www.w3.org/1999/xlink" xml:space="preserve" xmlns:serif="http://www.serif.com/" style="fill-rule:evenodd;clip-rule:evenodd;stroke-linejoin:round;stroke-miterlimit:2;">
    <g transform="matrix(1,0,0,1,-2352,-1011)">
        <g id="faq-icon" transform="matrix(0.0166431,0,0,0.0166667,2306.83,1011)">
            <rect x="2714.03" y="0" width="1442.04" height="1440" style="fill:none;"/>
            <g transform="matrix(14.2548,0,0,14.2346,2722.35,30.5181)">
                <path d="M28.168,57.789C27.902,57.707 27.633,57.625 27.363,57.535L11.09,68.234C10.055,68.914 8.723,68.922 7.684,68.254C6.645,67.59 6.098,66.375 6.282,65.156L9.555,43.574C7.43,39.843 6.247,35.66 6.247,31.25C6.247,15.887 20.813,3.125 39.059,3.125C56.692,3.125 70.891,15.043 71.825,29.715C84.649,33.59 93.747,44.106 93.747,56.25C93.747,60.664 92.567,64.844 90.442,68.574L93.711,90.156C93.899,91.375 93.348,92.59 92.309,93.254C91.27,93.922 89.934,93.914 88.907,93.234C88.907,93.234 72.63,82.535 72.634,82.535C69.005,83.723 65.06,84.375 60.935,84.375C43.306,84.375 29.107,72.457 28.169,57.789L28.168,57.789ZM34.594,59.117C36.305,69.957 47.563,78.125 60.934,78.125C64.856,78.125 68.582,77.422 71.95,76.152C72.887,75.801 73.934,75.914 74.77,76.465L86.481,84.164L84.094,68.402C83.981,67.66 84.137,66.902 84.54,66.269C86.419,63.277 87.497,59.871 87.497,56.249C87.497,47.128 80.801,39.444 71.376,36.128C68.68,49.226 55.329,59.374 39.06,59.374C37.544,59.374 36.056,59.284 34.595,59.116L34.594,59.117ZM49.949,66.742C48.472,65.855 47.992,63.933 48.879,62.457C49.769,60.976 51.687,60.496 53.164,61.383L58.785,64.754L72.683,49.461C73.843,48.184 75.823,48.09 77.097,49.25C78.374,50.41 78.468,52.39 77.308,53.664L61.683,70.852C60.683,71.957 59.038,72.196 57.765,71.43L49.949,66.742ZM65.398,28.383C63.691,17.543 52.429,9.375 39.058,9.375C24.531,9.375 12.496,19.016 12.496,31.25C12.496,34.871 13.574,38.277 15.457,41.27C15.855,41.903 16.011,42.661 15.902,43.403L13.511,59.165L25.222,51.466C26.062,50.915 27.105,50.802 28.043,51.153C28.234,51.227 28.426,51.294 28.621,51.364C30.539,52.044 32.574,52.54 34.691,52.833C36.113,53.024 37.574,53.126 39.058,53.126C52.203,53.126 63.304,45.235 65.3,34.669C65.511,33.56 65.621,32.419 65.621,31.251C65.621,30.278 65.546,29.321 65.398,28.384L65.398,28.383ZM39.058,43.75C40.781,43.75 42.183,45.148 42.183,46.875C42.183,48.602 40.781,50 39.058,50C37.335,50 35.933,48.602 35.933,46.875C35.933,45.148 37.335,43.75 39.058,43.75ZM39.058,28.125C41.648,28.125 43.745,26.023 43.745,23.438C43.745,20.852 41.648,18.75 39.058,18.75C37.136,18.75 35.484,19.91 34.757,21.563C34.07,23.145 32.226,23.867 30.644,23.176C29.066,22.484 28.343,20.641 29.03,19.063C30.722,15.199 34.577,12.5 39.057,12.5C45.093,12.5 49.995,17.398 49.995,23.438C49.995,28.391 46.699,32.575 42.183,33.922L42.183,37.5C42.183,39.227 40.781,40.625 39.058,40.625C37.335,40.625 35.933,39.227 35.933,37.5L35.933,31.25C35.933,29.524 37.335,28.125 39.058,28.125L39.058,28.125Z"/>
            </g>
        </g>
    </g>
</svg>
