<?xml version="1.0" encoding="UTF-8" standalone="no"?>
<!DOCTYPE svg PUBLIC "-//W3C//DTD SVG 1.1//EN" "http://www.w3.org/Graphics/SVG/1.1/DTD/svg11.dtd">
<svg width="100%" height="100%" viewBox="0 0 100 69" version="1.1" xmlns="http://www.w3.org/2000/svg" xmlns:xlink="http://www.w3.org/1999/xlink" xml:space="preserve" xmlns:serif="http://www.serif.com/" style="fill-rule:evenodd;clip-rule:evenodd;stroke-linejoin:round;stroke-miterlimit:1.5;">
    <g transform="matrix(1,0,0,1,-2899,-4000)">
        <g id="fire" transform="matrix(0.0693461,0,0,0.0472222,2710.79,4000.04)">
            <rect x="2714.03" y="0" width="1442.04" height="1440" style="fill:none;"/>
            <clipPath id="_clip1">
                <rect x="2714.03" y="0" width="1442.04" height="1440"/>
            </clipPath>
            <g clip-path="url(#_clip1)">
                <g transform="matrix(4.70874e-16,-11.2927,11.6284,1.04562e-15,-2914.23,3006.6)">
                    <g transform="matrix(0.481333,0,0,0.722,0,0)">
                        <path d="M301.886,793.225C349.672,775.253 376.816,770.325 419.457,793.22C462.098,816.115 513.467,790.421 531.846,781.472" style="fill:none;stroke:black;stroke-width:18.48px;"/>
                    </g>
                    <g transform="matrix(0.481333,0,0,0.722,1.83233,-24.4784)">
                        <path d="M301.886,793.225C349.672,775.253 376.816,770.325 419.457,793.22C462.098,816.115 513.467,790.421 531.846,781.472" style="fill:none;stroke:black;stroke-width:18.48px;"/>
                    </g>
                    <g transform="matrix(0.481333,0,0,0.722,3.66465,-48.9568)">
                        <path d="M301.886,793.225C349.672,775.253 376.816,770.325 419.457,793.22C462.098,816.115 513.467,790.421 531.846,781.472" style="fill:none;stroke:black;stroke-width:18.48px;"/>
                    </g>
                </g>
            </g>
        </g>
    </g>
</svg>
