<?xml version="1.0" encoding="UTF-8" standalone="no"?>
<!DOCTYPE svg PUBLIC "-//W3C//DTD SVG 1.1//EN" "http://www.w3.org/Graphics/SVG/1.1/DTD/svg11.dtd">
<svg width="100%" height="100%" viewBox="0 0 24 24" version="1.1" xmlns="http://www.w3.org/2000/svg" xmlns:xlink="http://www.w3.org/1999/xlink" xml:space="preserve" xmlns:serif="http://www.serif.com/" style="fill-rule:evenodd;clip-rule:evenodd;stroke-linejoin:round;stroke-miterlimit:2;">
    <g transform="matrix(1,0,0,1,-2779,-963)">
        <g id="geolocation-icon" transform="matrix(0.0166431,0,0,0.0166667,2733.83,963)">
            <rect x="2714.03" y="0" width="1442.04" height="1440" style="fill:none;"/>
            <g transform="matrix(34.6432,0,0,34.5942,2811.47,97.3051)">
                <path d="M16.093,5.692C16.093,4.646 16.954,3.785 18,3.785C19.046,3.785 19.907,4.646 19.907,5.692C19.907,5.692 19.907,11.443 19.907,11.442C22.144,12.097 23.903,13.856 24.557,16.093L30.308,16.093C31.354,16.093 32.215,16.954 32.215,18C32.215,19.046 31.354,19.907 30.308,19.907L24.557,19.907C23.903,22.144 22.144,23.903 19.907,24.557L19.907,30.308C19.907,31.354 19.046,32.215 18,32.215C16.954,32.215 16.093,31.354 16.093,30.308C16.093,30.308 16.093,24.557 16.093,24.558C13.856,23.903 12.097,22.144 11.443,19.907L5.692,19.907C4.646,19.907 3.785,19.046 3.785,18C3.785,16.954 4.646,16.093 5.692,16.093L5.692,16.769L6.369,16.769C6.369,16.396 6.066,16.093 5.692,16.093C5.692,16.093 11.443,16.093 11.442,16.093C12.097,13.856 13.856,12.097 16.093,11.443L16.093,5.692C16.093,6.066 16.396,6.369 16.769,6.369L16.093,5.692ZM18,21.016C19.654,21.014 21.014,19.654 21.016,18C21.016,16.345 19.654,14.984 18,14.984C16.345,14.984 14.984,16.345 14.984,18C14.984,19.654 16.345,21.016 18,21.016Z" style="fill-rule:nonzero;"/>
                <path d="M3.231,12.549C2.185,12.549 1.324,11.688 1.324,10.642L1.324,5.692C1.326,3.296 3.296,1.326 5.692,1.324L10.701,1.324C11.747,1.324 12.608,2.185 12.608,3.231C12.608,4.277 11.747,5.138 10.701,5.138L5.693,5.138C5.389,5.138 5.138,5.389 5.138,5.693L5.138,10.642C5.138,11.688 4.277,12.549 3.231,12.549Z" style="fill-rule:nonzero;"/>
                <path d="M10.583,30.862C11.629,30.862 12.49,31.723 12.49,32.769C12.49,33.815 11.629,34.676 10.583,34.676L5.692,34.676C3.296,34.674 1.326,32.704 1.324,30.308L1.324,25.489C1.324,24.443 2.185,23.582 3.231,23.582C4.277,23.582 5.138,24.443 5.138,25.489L5.138,30.307C5.138,30.611 5.389,30.862 5.693,30.862L10.583,30.862Z" style="fill-rule:nonzero;"/>
                <path d="M25.43,30.862L30.307,30.862C30.611,30.862 30.862,30.611 30.862,30.307L30.862,25.43C30.862,24.384 31.723,23.523 32.769,23.523C33.815,23.523 34.676,24.384 34.676,25.43L34.676,30.308C34.674,32.704 32.704,34.674 30.308,34.676L25.43,34.676C24.384,34.676 23.523,33.815 23.523,32.769C23.523,31.723 24.384,30.862 25.43,30.862Z" style="fill-rule:nonzero;"/>
                <path d="M25.43,1.324L30.308,1.324C32.704,1.326 34.674,3.296 34.676,5.692L34.676,10.642C34.676,11.688 33.815,12.549 32.769,12.549C31.723,12.549 30.862,11.688 30.862,10.642L30.862,5.693C30.862,5.389 30.611,5.138 30.307,5.138L25.43,5.138C24.384,5.138 23.523,4.277 23.523,3.231C23.523,2.185 24.384,1.324 25.43,1.324Z" style="fill-rule:nonzero;"/>
            </g>
        </g>
    </g>
</svg>
