<?xml version="1.0" encoding="UTF-8" standalone="no"?>
<!DOCTYPE svg PUBLIC "-//W3C//DTD SVG 1.1//EN" "http://www.w3.org/Graphics/SVG/1.1/DTD/svg11.dtd">
<svg width="100%" height="100%" viewBox="0 0 24 25" version="1.1" xmlns="http://www.w3.org/2000/svg" xmlns:xlink="http://www.w3.org/1999/xlink" xml:space="preserve" xmlns:serif="http://www.serif.com/" style="fill-rule:evenodd;clip-rule:evenodd;stroke-linejoin:round;stroke-miterlimit:2;">
    <g transform="matrix(1,0,0,1,-2779,-1296)">
        <g id="home-icon" transform="matrix(0.0166431,0,0,0.0166667,2733.83,1296.9)">
            <rect x="2714.03" y="0" width="1442.04" height="1440" style="fill:none;"/>
            <g transform="matrix(5.26535,3.32752,-3.33224,5.25789,3442.83,384.301)">
                <path d="M17.84,36.691C24.348,29.492 31.668,24.668 39.211,22.007C46.613,19.402 54.231,18.886 61.512,20.265C68.778,21.644 75.703,24.913 81.75,29.882C89.074,35.902 95.094,44.409 98.84,55.058C99.262,56.253 98.637,57.562 97.442,57.98C96.731,58.23 95.981,58.109 95.403,57.722C83.301,50.468 72.2,46.894 62.485,47.324C54.176,47.691 46.825,51.031 40.676,57.558L52.992,62.593C54.16,63.066 54.722,64.402 54.249,65.574C53.972,66.257 53.402,66.73 52.742,66.914L52.742,66.921L3.918,80.401C2.699,80.737 1.437,80.022 1.101,78.804C1.027,78.534 1.003,78.261 1.027,77.995L1.019,77.995L5.664,25.436C5.773,24.174 6.886,23.237 8.148,23.346C8.945,23.417 9.613,23.885 9.968,24.542L17.832,36.698L17.84,36.691Z" style="fill:rgb(180,180,180);fill-rule:nonzero;"/>
            </g>
            <g transform="matrix(5.26535,3.32752,-3.33224,5.25789,3390.25,331.793)">
                <path d="M17.84,36.691C24.348,29.492 31.668,24.668 39.211,22.007C46.613,19.402 54.231,18.886 61.512,20.265C68.778,21.644 75.703,24.913 81.75,29.882C89.074,35.902 95.094,44.409 98.84,55.058C99.262,56.253 98.637,57.562 97.442,57.98C96.731,58.23 95.981,58.109 95.403,57.722C83.301,50.468 72.2,46.894 62.485,47.324C54.176,47.691 46.825,51.031 40.676,57.558L52.992,62.593C54.16,63.066 54.722,64.402 54.249,65.574C53.972,66.257 53.402,66.73 52.742,66.914L52.742,66.921L3.918,80.401C2.699,80.737 1.437,80.022 1.101,78.804C1.027,78.534 1.003,78.261 1.027,77.995L1.019,77.995L5.664,25.436C5.773,24.174 6.886,23.237 8.148,23.346C8.945,23.417 9.613,23.885 9.968,24.542L17.832,36.698L17.84,36.691Z" style="fill-rule:nonzero;"/>
            </g>
        </g>
    </g>
</svg>
