<?xml version="1.0" encoding="UTF-8" standalone="no"?>
<!DOCTYPE svg PUBLIC "-//W3C//DTD SVG 1.1//EN" "http://www.w3.org/Graphics/SVG/1.1/DTD/svg11.dtd">
<svg width="100%" height="100%" viewBox="0 0 24 24" version="1.1" xmlns="http://www.w3.org/2000/svg" xmlns:xlink="http://www.w3.org/1999/xlink" xml:space="preserve" xmlns:serif="http://www.serif.com/" style="fill-rule:evenodd;clip-rule:evenodd;stroke-linejoin:round;stroke-miterlimit:2;">
    <g transform="matrix(1,0,0,1,-2352,-1035)">
        <g id="learn-icon" transform="matrix(0.0166431,0,0,0.0166667,2306.83,1035)">
            <rect x="2714.03" y="0" width="1442.04" height="1440" style="fill:none;"/>
            <g transform="matrix(14.0993,0,0,14.0794,2659.58,-124.796)">
                <g transform="matrix(1,0,0,1,5,10)">
                    <path d="M96.66,32.762C96.598,32.731 96.515,32.7 96.437,32.668L50.523,16.832C50.508,16.832 50.492,16.817 50.476,16.817C50.176,16.723 49.828,16.723 49.527,16.817C49.512,16.817 49.496,16.832 49.48,16.832L3.562,32.668C3.484,32.7 3.402,32.731 3.34,32.762C2.832,33.047 2.5,33.571 2.5,34.172C2.5,34.774 2.832,35.297 3.34,35.582C3.402,35.614 3.484,35.645 3.562,35.676L15.167,39.68L15.167,58.2C12.886,58.88 11.21,61.001 11.21,63.505C11.21,65.403 12.191,67.145 13.746,68.161C13.523,69.126 13.304,70.204 13.082,71.407C12.48,74.763 12.003,75.055 12.003,80.091C12.003,80.407 12.097,80.708 12.273,80.977C12.843,81.817 14.425,83.259 16.753,83.259C19.082,83.259 20.664,81.817 21.234,80.977C21.41,80.708 21.503,80.407 21.503,80.091C21.503,75.055 21.027,74.766 20.425,71.407C20.203,70.204 19.984,69.126 19.761,68.161C21.312,67.149 22.297,65.407 22.297,63.505C22.297,61.005 20.617,58.88 18.34,58.2L18.332,40.774L49.477,51.508C49.492,51.508 49.508,51.524 49.524,51.524C49.824,51.617 50.172,51.617 50.473,51.524C50.488,51.524 50.504,51.508 50.52,51.508L96.438,35.676C96.516,35.645 96.598,35.614 96.66,35.582C97.168,35.293 97.5,34.774 97.5,34.172C97.5,33.57 97.168,33.047 96.66,32.762L96.66,32.762Z" style="fill-rule:nonzero;"/>
                </g>
                <g transform="matrix(1,0,0,1,5,10)">
                    <path d="M50,54.945C49.824,54.945 49.652,54.914 49.477,54.851L24.668,46.297L24.668,65.004C24.668,65.875 25.379,66.586 26.25,66.586C26.41,66.586 41.609,66.648 49.016,72.57C49.301,72.808 49.648,72.918 49.996,72.918C50.344,72.918 50.691,72.808 50.976,72.57C58.371,66.664 73.586,66.586 73.742,66.586C74.614,66.586 75.324,65.875 75.324,65.004L75.332,46.297L50.523,54.847C50.348,54.91 50.176,54.941 50,54.941L50,54.945Z" style="fill-rule:nonzero;"/>
                </g>
            </g>
        </g>
    </g>
</svg>
