<?xml version="1.0" encoding="UTF-8" standalone="no"?>
<!DOCTYPE svg PUBLIC "-//W3C//DTD SVG 1.1//EN" "http://www.w3.org/Graphics/SVG/1.1/DTD/svg11.dtd">
<svg width="100%" height="100%" viewBox="0 0 68 69" version="1.1" xmlns="http://www.w3.org/2000/svg" xmlns:xlink="http://www.w3.org/1999/xlink" xml:space="preserve" xmlns:serif="http://www.serif.com/" style="fill-rule:evenodd;clip-rule:evenodd;stroke-linejoin:round;stroke-miterlimit:2;">
    <g transform="matrix(1,0,0,1,-3023,-4200)">
        <g id="location" transform="matrix(0.0471553,0,0,0.0472222,2895.02,4200.04)">
            <rect x="2714.03" y="0" width="1442.04" height="1440" style="fill:none;"/>
            <g transform="matrix(2.43244,0,0,2.42899,2621.71,39.8937)">
                <path d="M535.43,237.48L501.18,231.191C500.207,231.011 499.418,230.304 499.125,229.335C495.953,218.999 491.77,208.909 486.687,199.339C486.211,198.449 486.265,197.386 486.828,196.574L506.601,167.894C511.824,160.323 510.894,150.109 504.39,143.609L470.769,109.988C464.265,103.484 454.05,102.554 446.484,107.773L417.816,127.546C417,128.108 415.933,128.159 415.043,127.683C405.476,122.609 395.383,118.417 385.043,115.242C384.074,114.945 383.371,114.16 383.187,113.191L376.898,78.953C375.234,69.906 367.355,63.34 358.156,63.34L310.609,63.34C301.41,63.34 293.531,69.906 291.867,78.953L285.578,113.187C285.398,114.16 284.691,114.949 283.73,115.242C273.382,118.417 263.289,122.609 253.722,127.687C252.824,128.163 251.765,128.108 250.949,127.546L222.281,107.776C214.711,102.553 204.496,103.483 197.988,109.987L164.371,143.604C157.867,150.112 156.937,160.327 162.16,167.897L181.933,196.569C182.495,197.385 182.546,198.444 182.074,199.342C176.992,208.909 172.808,219.002 169.633,229.342C169.336,230.303 168.551,231.01 167.582,231.19L133.332,237.479C124.285,239.143 117.719,247.022 117.719,256.221L117.719,303.768C117.719,312.967 124.285,320.846 133.332,322.51L167.594,328.799C168.562,328.979 169.348,329.686 169.648,330.655C172.82,340.987 177.004,351.077 182.078,360.635C182.555,361.533 182.5,362.592 181.938,363.408L162.153,392.096C156.934,399.666 157.864,409.881 164.368,416.381L197.989,450.002C204.493,456.506 214.708,457.436 222.274,452.213L250.969,432.428C251.785,431.866 252.844,431.815 253.742,432.287C263.301,437.362 273.387,441.545 283.715,444.717C284.676,445.014 285.383,445.799 285.563,446.772L291.856,481.038C293.52,490.089 301.399,496.651 310.598,496.651L358.145,496.651C367.344,496.651 375.223,490.089 376.887,481.038L383.18,446.765C383.359,445.796 384.066,445.011 385.027,444.71C395.363,441.538 405.449,437.355 415,432.284C415.899,431.808 416.957,431.863 417.774,432.425L446.469,452.21C454.039,457.433 464.254,456.503 470.754,449.999L504.375,416.382C510.879,409.874 511.808,399.659 506.586,392.089L486.801,363.401C486.238,362.585 486.187,361.526 486.664,360.636C491.734,351.077 495.918,340.991 499.094,330.652C499.391,329.691 500.176,328.984 501.145,328.804L535.411,322.511C544.458,320.847 551.024,312.968 551.024,303.769L551.024,256.222C551.043,247.023 544.477,239.144 535.43,237.48L535.43,237.48ZM428.26,279.98C428.26,331.742 386.151,373.855 334.385,373.855C282.623,373.855 240.51,331.742 240.51,279.98C240.51,228.218 282.623,186.105 334.385,186.105C386.151,186.101 428.26,228.218 428.26,279.98Z" style="fill:rgb(89,122,130);fill-rule:nonzero;"/>
            </g>
        </g>
    </g>
</svg>
