<?xml version="1.0" encoding="UTF-8" standalone="no"?>
<!DOCTYPE svg PUBLIC "-//W3C//DTD SVG 1.1//EN" "http://www.w3.org/Graphics/SVG/1.1/DTD/svg11.dtd">
<svg width="100%" height="100%" viewBox="0 0 80 80" version="1.1" xmlns="http://www.w3.org/2000/svg" xmlns:xlink="http://www.w3.org/1999/xlink" xml:space="preserve" xmlns:serif="http://www.serif.com/" style="fill-rule:evenodd;clip-rule:evenodd;stroke-linejoin:round;stroke-miterlimit:2;">
    <g transform="matrix(1,0,0,1,-2272,-915)">
        <g id="map-marker-yellow" transform="matrix(0.0554769,0,0,0.0555556,2121.43,915)">
            <rect x="2714.03" y="0" width="1442.04" height="1440" style="fill:none;"/>
            <g transform="matrix(18.0255,0,0,18,-45936.9,-76896)">
                <circle cx="2739" cy="4292.34" r="13.876" style="fill:white;"/>
            </g>
            <g transform="matrix(17.2519,0,0,17.2275,2572.45,-142.082)">
                <path d="M66.527,74.233L53.602,80.301L66.527,86.364C66.527,86.364 62.927,88.055 62.927,88.055L50.001,81.989L37.074,88.055C37.074,88.055 33.473,86.364 33.473,86.364C33.473,86.364 46.4,80.301 46.4,80.301L33.473,74.233L37.074,72.543C37.074,72.543 50.001,78.609 50.001,78.609L62.927,72.543L66.527,74.233Z" style="fill:rgb(255,227,0);fill-rule:nonzero;stroke:black;stroke-width:1.57px;"/>
            </g>
            <g transform="matrix(17.2519,0,0,17.2275,2572.45,-142.082)">
                <path d="M50,9.845C39.198,9.845 30.442,18.602 30.442,29.404C30.442,31.377 30.737,33.281 31.28,35.078C32.899,45.66 49.939,71.303 49.939,71.303C49.939,71.303 66.116,46.959 68.441,35.922C69.162,33.883 69.558,31.691 69.558,29.404C69.559,18.602 60.802,9.845 50,9.845ZM50,38.99C44.405,38.99 39.87,34.455 39.87,28.86C39.87,23.265 44.405,18.73 50,18.73C55.595,18.73 60.13,23.265 60.13,28.86C60.13,34.455 55.595,38.99 50,38.99Z" style="fill:rgb(255,227,0);fill-rule:nonzero;stroke:black;stroke-width:1.57px;"/>
            </g>
        </g>
    </g>
</svg>
