<?xml version="1.0" encoding="UTF-8" standalone="no"?>
<!DOCTYPE svg PUBLIC "-//W3C//DTD SVG 1.1//EN" "http://www.w3.org/Graphics/SVG/1.1/DTD/svg11.dtd">
<svg width="100%" height="100%" viewBox="0 0 80 80" version="1.1" xmlns="http://www.w3.org/2000/svg" xmlns:xlink="http://www.w3.org/1999/xlink" xml:space="preserve" xmlns:serif="http://www.serif.com/" style="fill-rule:evenodd;clip-rule:evenodd;stroke-linejoin:round;stroke-miterlimit:2;">
    <g transform="matrix(1,0,0,1,-2272,-915)">
        <g id="map-marker" transform="matrix(0.0554769,0,0,0.0555556,2121.43,915)">
            <rect x="2714.03" y="0" width="1442.04" height="1440" style="fill:none;"/>
            <clipPath id="_clip1">
                <rect x="2714.03" y="0" width="1442.04" height="1440"/>
            </clipPath>
            <g clip-path="url(#_clip1)">
                <g transform="matrix(18.0255,0,0,18,-45936.9,-76896)">
                    <circle cx="2739" cy="4292.34" r="13.876" style="fill:white;"/>
                </g>
                <g transform="matrix(17.956,0,0,17.9305,2537.25,-176.526)">
                    <path d="M66.703,74.233L53.778,80.301L66.703,86.364L62.927,88.137L50.001,82.071L37.074,88.137L33.298,86.364L46.225,80.301L33.298,74.233L37.074,72.461L50.001,78.527L62.927,72.461C62.927,72.461 66.703,74.233 66.703,74.233Z" style="fill:rgb(34,197,94);fill-rule:nonzero;"/>
                </g>
                <g transform="matrix(17.956,0,0,17.9305,2537.25,-176.526)">
                    <path d="M50,9.845C39.198,9.845 30.442,18.602 30.442,29.404C30.442,31.377 30.737,33.281 31.28,35.078C32.899,45.66 49.939,71.303 49.939,71.303C49.939,71.303 66.116,46.959 68.441,35.922C69.162,33.883 69.558,31.691 69.558,29.404C69.559,18.602 60.802,9.845 50,9.845ZM50,38.99C44.405,38.99 39.87,34.455 39.87,28.86C39.87,23.265 44.405,18.73 50,18.73C55.595,18.73 60.13,23.265 60.13,28.86C60.13,34.455 55.595,38.99 50,38.99Z" style="fill:rgb(34,197,94);fill-rule:nonzero;"/>
                </g>
            </g>
        </g>
    </g>
</svg>
