<?xml version="1.0" encoding="UTF-8" standalone="no"?>
<!DOCTYPE svg PUBLIC "-//W3C//DTD SVG 1.1//EN" "http://www.w3.org/Graphics/SVG/1.1/DTD/svg11.dtd">
<svg width="100%" height="100%" viewBox="0 0 24 24" version="1.1" xmlns="http://www.w3.org/2000/svg" xmlns:xlink="http://www.w3.org/1999/xlink" xml:space="preserve" xmlns:serif="http://www.serif.com/" style="fill-rule:evenodd;clip-rule:evenodd;stroke-linejoin:round;stroke-miterlimit:2;">
    <g transform="matrix(1,0,0,1,-2352,-1155)">
        <g id="moon-icon" transform="matrix(0.0166431,0,0,0.0166667,2306.83,1155)">
            <rect x="2714.03" y="0" width="1442.04" height="1440" style="fill:none;"/>
            <g transform="matrix(18.4244,0,0,18.3983,2808.61,94.6579)">
                <path d="M64.38,37C62.805,52.469 49.625,64.374 34.077,64.374C17.367,64.374 3.617,50.624 3.617,33.914C3.617,18.362 15.527,5.181 31,3.61C31.037,3.606 31.073,3.604 31.11,3.604C31.659,3.604 32.11,4.055 32.11,4.604C32.11,4.961 31.919,5.292 31.61,5.47C24.795,9.533 20.607,16.905 20.607,24.839C20.607,37.21 30.786,47.389 43.157,47.389C51.094,47.389 58.468,43.199 62.53,36.38C62.711,36.082 63.036,35.9 63.384,35.9C63.933,35.9 64.384,36.352 64.384,36.9C64.384,36.93 64.383,36.96 64.38,36.99L64.38,37Z" style="fill-rule:nonzero;"/>
            </g>
        </g>
    </g>
</svg>
