<?xml version="1.0" encoding="UTF-8" standalone="no"?>
<!DOCTYPE svg PUBLIC "-//W3C//DTD SVG 1.1//EN" "http://www.w3.org/Graphics/SVG/1.1/DTD/svg11.dtd">
<svg width="100%" height="100%" viewBox="0 0 24 24" version="1.1" xmlns="http://www.w3.org/2000/svg" xmlns:xlink="http://www.w3.org/1999/xlink" xml:space="preserve" xmlns:serif="http://www.serif.com/" style="fill-rule:evenodd;clip-rule:evenodd;stroke-linejoin:round;stroke-miterlimit:2;">
    <g transform="matrix(1,0,0,1,-2352,-1203)">
        <g id="rewind-icon" transform="matrix(0.0166431,0,0,0.0166667,2306.83,1203)">
            <rect x="2714.03" y="0" width="1442.04" height="1440" style="fill:none;"/>
            <clipPath id="_clip1">
                <rect x="2714.03" y="0" width="1442.04" height="1440"/>
            </clipPath>
            <g clip-path="url(#_clip1)">
                <g transform="matrix(-14.3923,0,0,14.3719,4150.44,1.40793)">
                    <path d="M97.773,26.218L91.678,26.218C90.458,26.225 89.457,27.226 89.45,28.446L89.45,71.554C89.457,72.774 90.458,73.775 91.678,73.781L97.773,73.781C98.992,73.774 99.993,72.773 100,71.554L100,28.446C99.993,27.227 98.992,26.225 97.773,26.218ZM85.385,54.364L85.385,45.635L46.857,26.371C46.654,26.268 46.43,26.215 46.203,26.215C45.41,26.215 44.757,26.867 44.757,27.661C44.757,27.666 44.757,27.672 44.757,27.678L44.757,72.322C44.757,72.327 44.757,72.333 44.757,72.338C44.757,73.132 45.41,73.785 46.204,73.785C46.431,73.785 46.655,73.731 46.857,73.629L85.385,54.364ZM40.685,45.664L2.105,26.371C1.901,26.267 1.675,26.212 1.446,26.212C0.653,26.212 -0,26.865 -0,27.658C-0,27.665 -0,27.671 0,27.678L0,72.322C-0,72.328 -0,72.334 -0,72.34C-0,73.134 0.653,73.787 1.447,73.787C1.676,73.787 1.901,73.733 2.105,73.629L40.687,54.338L40.685,45.664Z"/>
                </g>
            </g>
        </g>
    </g>
</svg>
