<?xml version="1.0" encoding="UTF-8" standalone="no"?>
<!DOCTYPE svg PUBLIC "-//W3C//DTD SVG 1.1//EN" "http://www.w3.org/Graphics/SVG/1.1/DTD/svg11.dtd">
<svg width="100%" height="100%" viewBox="0 0 24 25" version="1.1" xmlns="http://www.w3.org/2000/svg" xmlns:xlink="http://www.w3.org/1999/xlink" xml:space="preserve" xmlns:serif="http://www.serif.com/" style="fill-rule:evenodd;clip-rule:evenodd;stroke-linejoin:round;stroke-miterlimit:2;">
    <g transform="matrix(1,0,0,1,-2999,-4248)">
        <g id="search" transform="matrix(0.0166431,0,0,0.0166667,2953.83,4248.04)">
            <rect x="2714.03" y="0" width="1442.04" height="1440" style="fill:none;"/>
            <g transform="matrix(2.27198,0,0,2.26877,2630.31,75.8726)">
                <path d="M433.44,325.92C456.401,294.561 469.28,256.479 469.28,217.84C469.28,117.6 388.077,36.39 287.84,36.39C187.6,36.39 106.4,117.593 106.4,217.83C106.4,318.07 187.599,399.27 287.84,399.27C327.039,399.27 365.121,386.391 396.48,362.872L565.04,531.432L602.001,494.471L433.44,325.92ZM416.639,217.84C416.639,288.961 358.959,346.64 287.839,346.64C216.719,346.64 159.039,288.96 159.039,217.84C159.039,146.72 216.719,89.04 287.839,89.04C358.959,89.04 416.639,146.72 416.639,217.84Z" style="fill:white;fill-rule:nonzero;"/>
            </g>
        </g>
    </g>
</svg>
