<?xml version="1.0" encoding="UTF-8" standalone="no"?>
<!DOCTYPE svg PUBLIC "-//W3C//DTD SVG 1.1//EN" "http://www.w3.org/Graphics/SVG/1.1/DTD/svg11.dtd">
<svg width="100%" height="100%" viewBox="0 0 24 24" version="1.1" xmlns="http://www.w3.org/2000/svg" xmlns:xlink="http://www.w3.org/1999/xlink" xml:space="preserve" xmlns:serif="http://www.serif.com/" style="fill-rule:evenodd;clip-rule:evenodd;stroke-linejoin:round;stroke-miterlimit:2;">
    <g transform="matrix(1,0,0,1,-2779,-1131)">
        <g id="settings-icon" transform="matrix(0.0166431,0,0,0.0166667,2733.83,1131)">
            <rect x="2714.03" y="0" width="1442.04" height="1440" style="fill:none;"/>
            <g transform="matrix(15.6725,0,0,15.6503,2651.42,-62.5139)">
                <path d="M50,34.375C45.856,34.375 41.883,36.02 38.953,38.953C36.019,41.883 34.375,45.855 34.375,50C34.375,54.145 36.019,58.117 38.953,61.047C41.883,63.981 45.855,65.625 50,65.625C54.145,65.625 58.117,63.981 61.047,61.047C63.981,58.117 65.625,54.145 65.625,50C65.625,45.855 63.981,41.883 61.047,38.953C58.117,36.02 54.145,34.375 50,34.375ZM50,59.375C46.207,59.375 42.789,57.09 41.34,53.586C39.887,50.086 40.691,46.051 43.371,43.371C46.051,40.691 50.086,39.887 53.586,41.34C57.09,42.789 59.375,46.207 59.375,50C59.375,55.176 55.176,59.375 50,59.375L50,59.375ZM86.168,56.668C84.387,54.906 83.383,52.504 83.383,50C83.383,47.496 84.387,45.094 86.168,43.332L86.668,42.832C88.949,40.563 89.43,37.047 87.832,34.25L82.625,25.25C80.934,22.371 77.477,21.039 74.293,22.043C71.848,22.781 69.211,22.492 66.985,21.242C64.758,19.992 63.141,17.887 62.5,15.418L62.5,14.918C61.695,11.66 58.77,9.371 55.418,9.375L44.918,9.375C41.563,9.371 38.637,11.66 37.832,14.918L37.832,15.418C37.203,17.965 35.531,20.137 33.227,21.395C30.922,22.652 28.196,22.891 25.707,22.043C22.524,21.024 19.055,22.356 17.375,25.25L12.168,34.25C10.571,37.047 11.051,40.563 13.332,42.832L13.832,43.332C15.614,45.094 16.618,47.496 16.618,50C16.618,52.504 15.614,54.906 13.832,56.668L13.332,57.168C11.051,59.438 10.571,62.953 12.168,65.75L17.375,74.75C19.067,77.629 22.524,78.961 25.707,77.957C28.18,77.152 30.871,77.406 33.149,78.664C35.422,79.918 37.074,82.062 37.707,84.582L37.707,85.082C38.512,88.34 41.438,90.629 44.793,90.625L54.961,90.625L54.957,90.625C58.313,90.629 61.238,88.34 62.043,85.082L62.043,84.582C62.676,82.063 64.328,79.918 66.602,78.664C68.879,77.406 71.57,77.152 74.043,77.957C77.227,78.977 80.695,77.645 82.375,74.75L87.582,65.75C89.18,62.953 88.699,59.438 86.418,57.168L86.168,56.668ZM81.75,61.125L82.293,61.625C82.5,61.926 82.5,62.324 82.293,62.625L77.086,71.625L77.082,71.625C76.883,71.977 76.465,72.133 76.082,72C71.961,70.672 67.469,71.109 63.68,73.207C59.891,75.309 57.141,78.883 56.082,83.082L56.082,83.582C55.957,84.035 55.555,84.355 55.082,84.375L44.918,84.375C44.446,84.355 44.043,84.035 43.918,83.582L43.918,83.082C43.067,79.68 41.094,76.664 38.321,74.516C35.547,72.371 32.133,71.219 28.625,71.25C26.985,71.25 25.356,71.5 23.793,72C23.411,72.117 23,71.961 22.793,71.625L17.582,62.5C17.375,62.199 17.375,61.801 17.582,61.5L18.125,60.957C21.102,58.082 22.809,54.137 22.875,50C22.868,45.824 21.207,41.824 18.25,38.875L17.707,38.375C17.5,38.074 17.5,37.676 17.707,37.375L22.793,28.375C22.993,28.023 23.411,27.867 23.793,28C27.914,29.328 32.407,28.891 36.195,26.793C39.984,24.691 42.734,21.117 43.793,16.918L43.793,16.418C43.918,15.965 44.32,15.645 44.793,15.625L54.961,15.625L54.957,15.625C55.43,15.645 55.832,15.965 55.957,16.418L55.957,16.918C57.016,21.117 59.766,24.691 63.555,26.793C67.344,28.891 71.836,29.328 75.957,28C76.34,27.883 76.75,28.039 76.957,28.375L82.418,37.5C82.625,37.801 82.625,38.199 82.418,38.5L81.875,39.043C78.898,41.918 77.191,45.863 77.125,50C77.133,54.176 78.793,58.176 81.75,61.125L81.75,61.125Z" style="fill-rule:nonzero;"/>
            </g>
        </g>
    </g>
</svg>
