<?xml version="1.0" encoding="UTF-8" standalone="no"?>
<!DOCTYPE svg PUBLIC "-//W3C//DTD SVG 1.1//EN" "http://www.w3.org/Graphics/SVG/1.1/DTD/svg11.dtd">
<svg width="100%" height="100%" viewBox="0 0 24 24" version="1.1" xmlns="http://www.w3.org/2000/svg" xmlns:xlink="http://www.w3.org/1999/xlink" xml:space="preserve" xmlns:serif="http://www.serif.com/" style="fill-rule:evenodd;clip-rule:evenodd;stroke-linecap:round;stroke-linejoin:bevel;stroke-miterlimit:1.5;">
    <g transform="matrix(1,0,0,1,-2376,-1297)">
        <g id="simple-clock-icon" transform="matrix(0.0166431,0,0,0.0166667,2330.83,1297)">
            <rect x="2714.03" y="0" width="1442.04" height="1440" style="fill:none;"/>
            <g transform="matrix(46.91,0,0,46.855,-127491,-58104.3)">
                <path d="M2791,1255.03L2786.17,1242.4" style="fill:none;stroke:black;stroke-width:1.92px;"/>
            </g>
            <g transform="matrix(3.50086,0,0,3.49676,-596.457,-642.131)">
                <circle cx="1151.58" cy="383.858" r="34.194"/>
                <path d="M1151.58,349.664C1170.45,349.664 1185.77,364.986 1185.77,383.858C1185.77,402.73 1170.45,418.052 1151.58,418.052C1132.7,418.052 1117.38,402.73 1117.38,383.858C1117.38,364.986 1132.7,349.664 1151.58,349.664ZM1151.58,382.994C1151.1,382.994 1150.72,383.383 1150.72,383.858C1150.72,384.333 1151.1,384.723 1151.58,384.723C1152.05,384.723 1152.43,384.333 1152.43,383.858C1152.43,383.383 1152.05,382.994 1151.58,382.994Z" style="fill:rgb(35,31,32);"/>
            </g>
        </g>
    </g>
</svg>
