<?xml version="1.0" encoding="UTF-8" standalone="no"?>
<!DOCTYPE svg PUBLIC "-//W3C//DTD SVG 1.1//EN" "http://www.w3.org/Graphics/SVG/1.1/DTD/svg11.dtd">
<svg width="100%" height="100%" viewBox="0 0 24 25" version="1.1" xmlns="http://www.w3.org/2000/svg" xmlns:xlink="http://www.w3.org/1999/xlink" xml:space="preserve" xmlns:serif="http://www.serif.com/" style="fill-rule:evenodd;clip-rule:evenodd;stroke-linecap:square;stroke-linejoin:round;stroke-miterlimit:1;">
    <g transform="matrix(1,0,0,1,-2779,-1272)">
        <g id="spiral-icon" transform="matrix(0.0166431,0,0,0.0166667,2733.83,1272.88)">
            <rect x="2714.03" y="0" width="1442.04" height="1440" style="fill:none;"/>
            <clipPath id="_clip1">
                <rect x="2714.03" y="0" width="1442.04" height="1440"/>
            </clipPath>
            <g clip-path="url(#_clip1)">
                <g transform="matrix(45.0638,0,0,35,-122338,-44250.7)">
                    <path d="M2779,1272.88L2803,1272.88L2803,1296.88L2779,1296.88L2779,1280.29L2788.89,1280.29" style="fill:none;stroke:black;stroke-width:5.49px;"/>
                </g>
                <g transform="matrix(2.77827,0,0,2.77433,453.455,-502.008)">
                    <circle cx="1151.58" cy="383.858" r="34.194"/>
                    <path d="M1151.58,349.664C1170.45,349.664 1185.77,364.986 1185.77,383.858C1185.77,402.73 1170.45,418.052 1151.58,418.052C1132.7,418.052 1117.38,402.73 1117.38,383.858C1117.38,364.986 1132.7,349.664 1151.58,349.664ZM1151.58,382.998C1151.1,382.998 1150.71,383.383 1150.71,383.858C1150.71,384.333 1151.1,384.719 1151.58,384.719C1152.05,384.719 1152.43,384.333 1152.43,383.858C1152.43,383.383 1152.05,382.998 1151.58,382.998Z" style="fill:rgb(35,31,32);"/>
                </g>
                <g transform="matrix(60.0851,0,0,60,-164077,-76375.2)">
                    <g transform="matrix(1.00329,0,0,1,-9.16156,0)">
                        <g transform="matrix(2.89638,0,0,2.89638,2790.98,1287.71)">
                        </g>
                        <text x="2784.86px" y="1287.71px" style="font-family:'Arial-Black', 'Arial Black', sans-serif;font-weight:900;font-size:2.896px;">)    )</text>
                    </g>
                </g>
            </g>
        </g>
    </g>
</svg>
