<?xml version="1.0" encoding="UTF-8" standalone="no"?>
<!DOCTYPE svg PUBLIC "-//W3C//DTD SVG 1.1//EN" "http://www.w3.org/Graphics/SVG/1.1/DTD/svg11.dtd">
<svg width="100%" height="100%" viewBox="0 0 24 25" version="1.1" xmlns="http://www.w3.org/2000/svg" xmlns:xlink="http://www.w3.org/1999/xlink" xml:space="preserve" xmlns:serif="http://www.serif.com/" style="fill-rule:evenodd;clip-rule:evenodd;stroke-linejoin:round;stroke-miterlimit:2;">
    <g transform="matrix(1,0,0,1,-2779,-1272)">
        <g id="spiral-icon" transform="matrix(0.0166431,0,0,0.0166667,2733.83,1272.88)">
            <rect x="2714.03" y="0" width="1442.04" height="1440" style="fill:none;"/>
            <g transform="matrix(39.5093,0,0,27.0862,-106795,-34053)">
                <path d="M2777.54,1275L2777.54,1270.76L2803,1270.76C2803.8,1270.76 2804.46,1271.71 2804.46,1272.88L2804.46,1296.88C2804.46,1298.05 2803.8,1299 2803,1299L2779,1299C2778.2,1299 2777.54,1298.05 2777.54,1296.88L2777.54,1280.29C2777.54,1279.11 2778.2,1278.16 2779,1278.16L2790.35,1278.16L2790.35,1282.41L2780.46,1282.41L2780.46,1294.76L2801.54,1294.76L2801.54,1275L2777.54,1275ZM2796.13,1277.4C2797.29,1277.4 2798.24,1278.78 2798.24,1280.47C2798.24,1282.17 2797.29,1283.54 2796.13,1283.54C2794.96,1283.54 2794.02,1282.17 2794.02,1280.47C2794.02,1278.78 2794.96,1277.4 2796.13,1277.4ZM2788.38,1286.36C2788.55,1286.75 2788.68,1287.15 2788.78,1287.56C2788.88,1287.98 2788.93,1288.42 2788.93,1288.88C2788.93,1289.35 2788.88,1289.79 2788.78,1290.2C2788.68,1290.61 2788.55,1291.01 2788.38,1291.39L2787.83,1291.39C2787.98,1291 2788.1,1290.59 2788.17,1290.18C2788.24,1289.77 2788.28,1289.34 2788.28,1288.88C2788.28,1288.43 2788.24,1288 2788.17,1287.58C2788.1,1287.16 2787.98,1286.76 2787.83,1286.36L2788.38,1286.36ZM2793.62,1286.36C2793.8,1286.75 2793.93,1287.15 2794.03,1287.56C2794.13,1287.98 2794.18,1288.42 2794.18,1288.88C2794.18,1289.35 2794.13,1289.79 2794.03,1290.2C2793.93,1290.61 2793.8,1291.01 2793.62,1291.39L2793.07,1291.39C2793.23,1291 2793.34,1290.59 2793.42,1290.18C2793.49,1289.77 2793.52,1289.34 2793.52,1288.88C2793.52,1288.43 2793.49,1288 2793.42,1287.58C2793.34,1287.16 2793.23,1286.76 2793.07,1286.36L2793.62,1286.36Z" style="fill:rgb(0,242,255);"/>
            </g>
            <g transform="matrix(39.5093,0,0,27.0862,-106835,-34082.4)">
                <path d="M2777.54,1275L2777.54,1270.76L2803,1270.76C2803.8,1270.76 2804.46,1271.71 2804.46,1272.88L2804.46,1296.88C2804.46,1298.05 2803.8,1299 2803,1299L2779,1299C2778.2,1299 2777.54,1298.05 2777.54,1296.88L2777.54,1280.29C2777.54,1279.11 2778.2,1278.16 2779,1278.16L2790.35,1278.16L2790.35,1282.41L2780.46,1282.41L2780.46,1294.76L2801.54,1294.76L2801.54,1275L2777.54,1275ZM2796.13,1277.4C2797.29,1277.4 2798.24,1278.78 2798.24,1280.47C2798.24,1282.17 2797.29,1283.54 2796.13,1283.54C2794.96,1283.54 2794.02,1282.17 2794.02,1280.47C2794.02,1278.78 2794.96,1277.4 2796.13,1277.4ZM2788.38,1286.36C2788.55,1286.75 2788.68,1287.15 2788.78,1287.56C2788.88,1287.98 2788.93,1288.42 2788.93,1288.88C2788.93,1289.35 2788.88,1289.79 2788.78,1290.2C2788.68,1290.61 2788.55,1291.01 2788.38,1291.39L2787.83,1291.39C2787.98,1291 2788.1,1290.59 2788.17,1290.18C2788.24,1289.77 2788.28,1289.34 2788.28,1288.88C2788.28,1288.43 2788.24,1288 2788.17,1287.58C2788.1,1287.16 2787.98,1286.76 2787.83,1286.36L2788.38,1286.36ZM2793.62,1286.36C2793.8,1286.75 2793.93,1287.15 2794.03,1287.56C2794.13,1287.98 2794.18,1288.42 2794.18,1288.88C2794.18,1289.35 2794.13,1289.79 2794.03,1290.2C2793.93,1290.61 2793.8,1291.01 2793.62,1291.39L2793.07,1291.39C2793.23,1291 2793.34,1290.59 2793.42,1290.18C2793.49,1289.77 2793.52,1289.34 2793.52,1288.88C2793.52,1288.43 2793.49,1288 2793.42,1287.58C2793.34,1287.16 2793.23,1286.76 2793.07,1286.36L2793.62,1286.36Z"/>
            </g>
        </g>
    </g>
</svg>
