<?xml version="1.0" encoding="UTF-8" standalone="no"?>
<!DOCTYPE svg PUBLIC "-//W3C//DTD SVG 1.1//EN" "http://www.w3.org/Graphics/SVG/1.1/DTD/svg11.dtd">
<svg width="100%" height="100%" viewBox="0 0 24 24" version="1.1" xmlns="http://www.w3.org/2000/svg" xmlns:xlink="http://www.w3.org/1999/xlink" xml:space="preserve" xmlns:serif="http://www.serif.com/" style="fill-rule:evenodd;clip-rule:evenodd;stroke-linejoin:round;stroke-miterlimit:2;">
    <g transform="matrix(1,0,0,1,-2352,-1179)">
        <g id="sun-icon" transform="matrix(0.0166431,0,0,0.0166667,2306.83,1179)">
            <rect x="2714.03" y="0" width="1442.04" height="1440" style="fill:none;"/>
            <g transform="matrix(0.230069,0,0,0.230069,2050.32,-108.218)">
                <g transform="matrix(60.0851,0,0,60,3014.45,600)">
                    <path d="M84.102,16.898C83.801,16.597 83.5,16.296 83.102,15.898L80.602,13.5L68,26.102L70.602,28.602L71.402,29.402L73.902,32.004L86.504,19.402L84.102,16.898ZM50.602,79.699L49.5,79.699L45.899,79.597L45.899,97.495L54.297,97.495L54.301,79.6L50.602,79.699ZM50.5,2.5L45.797,2.5L45.797,20.301L49.399,20.199L50.5,20.199L54.102,20.301L54.102,2.602L50.5,2.5ZM19.398,13.5L16.898,15.898C16.598,16.199 16.297,16.5 15.898,16.898L13.5,19.398L26.102,32L28.602,29.399C28.903,29.098 29.102,28.797 29.403,28.598L32.004,26.098L19.398,13.5ZM73.898,68L71.398,70.602L70.598,71.402L68,73.898L80.602,86.5L83.102,84.102C83.403,83.801 83.801,83.501 84.102,83.102L86.5,80.602L73.898,68ZM97.5,45.801L79.602,45.801L79.704,49.403L79.704,50.606L79.602,54.207L97.5,54.207L97.5,45.801ZM20.301,50L20.301,49.399L20.403,45.797L2.501,45.801L2.501,54.199L20.399,54.199L20.297,50.598C20.301,50.399 20.301,50.199 20.301,50L20.301,50ZM29.399,71.398L28.598,70.597L26.102,68L13.5,80.602L15.899,83.102C16.199,83.403 16.598,83.801 16.899,84.102L19.399,86.5L32.001,73.898L29.399,71.398Z" style="fill-rule:nonzero;"/>
                </g>
                <g transform="matrix(60.0851,0,0,60,3014.45,600)">
                    <path d="M71.898,50C71.898,62.094 62.093,71.898 50,71.898C37.907,71.898 28.102,62.093 28.102,50C28.102,37.907 37.907,28.102 50,28.102C62.093,28.102 71.898,37.907 71.898,50" style="fill-rule:nonzero;"/>
                </g>
            </g>
        </g>
    </g>
</svg>
