<?xml version="1.0" encoding="UTF-8" standalone="no"?>
<!DOCTYPE svg PUBLIC "-//W3C//DTD SVG 1.1//EN" "http://www.w3.org/Graphics/SVG/1.1/DTD/svg11.dtd">
<svg width="100%" height="100%" viewBox="0 0 68 69" version="1.1" xmlns="http://www.w3.org/2000/svg" xmlns:xlink="http://www.w3.org/1999/xlink" xml:space="preserve" xmlns:serif="http://www.serif.com/" style="fill-rule:evenodd;clip-rule:evenodd;stroke-linejoin:round;stroke-miterlimit:2;">
    <g transform="matrix(1,0,0,1,-3159,-4000)">
        <g id="year" transform="matrix(0.0471553,0,0,0.0472222,3031.02,4000.04)">
            <rect x="2714.03" y="0" width="1442.04" height="1440" style="fill:none;"/>
            <g>
                <g transform="matrix(0.766171,0,0,0.94951,800.055,35.0579)">
                    <g transform="matrix(0.519677,0,0,0.43395,2625.66,225.386)">
                        <path d="M2833.23,195.603C2833.23,182.671 2822.35,172.172 2808.95,172.172L194.318,172.172C180.917,172.172 170.036,182.671 170.036,195.603L170.036,499.767C170.036,512.699 180.917,523.198 194.318,523.198L2808.95,523.198C2822.35,523.198 2833.23,512.699 2833.23,499.767L2833.23,195.603Z" style="fill:rgb(123,123,139);"/>
                    </g>
                    <g transform="matrix(0.24927,0,0,0.43395,2759.51,491.302)">
                        <path d="M2833.23,195.603C2833.23,182.671 2810.55,172.172 2782.61,172.172L220.659,172.172C192.72,172.172 170.036,182.671 170.036,195.603L170.036,499.767C170.036,512.699 192.72,523.198 220.659,523.198L2782.61,523.198C2810.55,523.198 2833.23,512.699 2833.23,499.767L2833.23,195.603Z" style="fill:rgb(123,123,139);"/>
                    </g>
                    <g transform="matrix(0.486684,0,0,0.43395,2719.14,902.145)">
                        <path d="M2833.23,195.603C2833.23,182.671 2821.62,172.172 2807.31,172.172L195.964,172.172C181.654,172.172 170.036,182.671 170.036,195.603L170.036,499.767C170.036,512.699 181.654,523.198 195.964,523.198L2807.31,523.198C2821.62,523.198 2833.23,512.699 2833.23,499.767L2833.23,195.603Z" style="fill:rgb(123,123,139);"/>
                    </g>
                    <g transform="matrix(0.0709847,0,0,2.33293,3896.91,-91.3981)">
                        <path d="M2833.23,174.706C2833.23,173.308 2786.92,172.172 2729.88,172.172L273.387,172.172C216.346,172.172 170.036,173.308 170.036,174.706L170.036,520.664C170.036,522.063 216.346,523.198 273.387,523.198L2729.88,523.198C2786.92,523.198 2833.23,522.063 2833.23,520.664L2833.23,174.706Z" style="fill:rgb(123,123,139);"/>
                    </g>
                    <g transform="matrix(0.0711003,0,0,1.57539,2789.81,304.946)">
                        <path d="M2833.23,175.931C2833.23,173.856 2786.92,172.172 2729.88,172.172L273.387,172.172C216.346,172.172 170.036,173.856 170.036,175.931L170.036,519.439C170.036,521.514 216.346,523.198 273.387,523.198L2729.88,523.198C2786.92,523.198 2833.23,521.514 2833.23,519.439L2833.23,175.931Z" style="fill:rgb(123,123,139);"/>
                    </g>
                </g>
                <g transform="matrix(7.37524,0,0,7.36479,-22587.9,-24171)">
                    <circle cx="3553.18" cy="3371.39" r="7.471" style="fill:rgb(123,123,139);"/>
                </g>
            </g>
        </g>
    </g>
</svg>
