<?xml version="1.0" encoding="UTF-8" standalone="no"?>
<!DOCTYPE svg PUBLIC "-//W3C//DTD SVG 1.1//EN" "http://www.w3.org/Graphics/SVG/1.1/DTD/svg11.dtd">
<svg width="100%" height="100%" viewBox="0 0 48 48" version="1.1" xmlns="http://www.w3.org/2000/svg" xmlns:xlink="http://www.w3.org/1999/xlink" xml:space="preserve" xmlns:serif="http://www.serif.com/" style="fill-rule:evenodd;clip-rule:evenodd;stroke-linejoin:round;stroke-miterlimit:2;">
    <g transform="matrix(1,0,0,1,0,-1060)">
        <g id="favicon" transform="matrix(0.216216,0,0,0.208041,-581.405,508.841)">
            <rect x="2689" y="2649.28" width="222" height="230.723" style="fill:none;"/>
            <g transform="matrix(0.639366,0,0,0.664489,887.213,-187.391)">
                <circle cx="2991.7" cy="4444" r="161.695" style="fill:white;"/>
                <path d="M2991.7,4282.3C3080.94,4282.3 3153.39,4354.76 3153.39,4444C3153.39,4533.24 3080.94,4605.69 2991.7,4605.69C2902.45,4605.69 2830,4533.24 2830,4444C2830,4354.76 2902.45,4282.3 2991.7,4282.3ZM2991.7,4314.85C2920.42,4314.85 2862.55,4372.72 2862.55,4444C2862.55,4515.27 2920.42,4573.14 2991.7,4573.14C3062.97,4573.14 3120.84,4515.27 3120.84,4444C3120.84,4372.72 3062.97,4314.85 2991.7,4314.85Z" style="fill:rgb(255,228,0);"/>
            </g>
            <g transform="matrix(0.979708,0,0,0.979708,56.8179,57.7865)">
                <g transform="matrix(0.355205,-0.00369495,0.00357056,0.36758,2614.23,2647.21)">
                    <path d="M657.118,333.14L384.313,330.398C380.703,330.362 377.805,327.399 377.842,323.789C377.878,320.18 380.835,317.276 384.444,317.313L657.249,320.055C660.859,320.091 663.757,323.054 663.72,326.663C663.684,330.272 660.728,333.176 657.118,333.14ZM344.438,249.724C340.661,247.917 339.065,243.382 340.872,239.605C342.678,235.833 347.205,234.234 350.978,236.039C354.754,237.847 356.351,242.381 354.543,246.158C352.738,249.93 348.21,251.53 344.438,249.724ZM367.375,260.702C363.599,258.895 362.002,254.36 363.81,250.583C365.615,246.811 370.143,245.212 373.915,247.017C377.692,248.825 379.289,253.359 377.481,257.136C375.676,260.908 371.148,262.508 367.375,260.702ZM390.313,271.68C386.537,269.873 384.94,265.338 386.748,261.561C388.553,257.789 393.081,256.19 396.853,257.995C400.63,259.803 402.226,264.337 400.419,268.114C398.613,271.886 394.085,273.485 390.313,271.68ZM413.251,282.658C409.474,280.85 407.878,276.316 409.685,272.539C411.49,268.767 416.018,267.168 419.791,268.973C423.567,270.781 425.164,275.315 423.356,279.092C421.551,282.864 417.023,284.463 413.251,282.658ZM436.188,293.636C432.411,291.828 430.814,287.294 432.622,283.517C434.427,279.745 438.955,278.146 442.728,279.951C446.504,281.758 448.101,286.293 446.293,290.07C444.488,293.842 439.96,295.441 436.188,293.636ZM459.125,304.614C455.348,302.806 453.751,298.271 455.559,294.495C457.364,290.722 461.892,289.123 465.665,290.929C469.441,292.736 471.038,297.271 469.23,301.048C467.425,304.82 462.897,306.419 459.125,304.614ZM573.812,359.503C570.035,357.696 568.439,353.161 570.246,349.384C572.052,345.612 576.579,344.013 580.352,345.818C584.128,347.626 585.725,352.16 583.917,355.937C582.112,359.709 577.584,361.309 573.812,359.503ZM596.749,370.481C592.972,368.673 591.376,364.139 593.183,360.362C594.989,356.59 599.516,354.991 603.289,356.796C607.065,358.604 608.662,363.138 606.854,366.915C605.049,370.687 600.521,372.286 596.749,370.481ZM619.686,381.459C615.909,379.651 614.313,375.116 616.12,371.34C617.926,367.568 622.453,365.968 626.226,367.774C630.002,369.581 631.599,374.116 629.791,377.893C627.986,381.665 623.458,383.264 619.686,381.459ZM642.623,392.437C638.846,390.629 637.25,386.094 639.058,382.318C640.863,378.545 645.391,376.946 649.163,378.752C652.94,380.559 654.536,385.094 652.729,388.87C650.923,392.643 646.395,394.242 642.623,392.437ZM665.561,403.415C661.784,401.607 660.188,397.072 661.995,393.296C663.801,389.523 668.328,387.924 672.101,389.73C675.877,391.537 677.474,396.072 675.666,399.848C673.861,403.621 669.333,405.22 665.561,403.415ZM688.498,414.393C684.722,412.585 683.125,408.051 684.933,404.274C686.738,400.502 691.266,398.902 695.038,400.708C698.815,402.515 700.411,407.05 698.604,410.827C696.798,414.599 692.271,416.198 688.498,414.393ZM347.748,407.993C343.911,409.656 339.446,407.887 337.784,404.05C336.119,400.208 337.885,395.737 341.727,394.072C345.564,392.41 350.029,394.178 351.691,398.015C353.356,401.857 351.59,406.329 347.748,407.993ZM371.082,397.884C367.245,399.546 362.78,397.778 361.118,393.941C359.453,390.099 361.219,385.628 365.06,383.963C368.898,382.301 373.363,384.069 375.025,387.906C376.689,391.748 374.924,396.219 371.082,397.884ZM394.416,387.775C390.579,389.437 386.114,387.669 384.451,383.832C382.787,379.99 384.552,375.518 388.394,373.854C392.232,372.192 396.696,373.96 398.359,377.797C400.023,381.639 398.257,386.11 394.416,387.775ZM417.749,377.666C413.912,379.328 409.447,377.56 407.785,373.723C406.12,369.881 407.886,365.41 411.728,363.745C415.565,362.083 420.03,363.851 421.692,367.688C423.357,371.53 421.591,376.001 417.749,377.666ZM441.082,367.557C437.245,369.22 432.78,367.452 431.118,363.614C429.453,359.772 431.219,355.301 435.061,353.636C438.898,351.974 443.363,353.742 445.025,357.58C446.69,361.421 444.924,365.893 441.082,367.557ZM464.415,357.449C460.578,359.111 456.113,357.343 454.451,353.505C452.786,349.664 454.552,345.192 458.394,343.528C462.231,341.865 466.696,343.633 468.358,347.471C470.023,351.313 468.257,355.784 464.415,357.449ZM581.083,306.904C577.245,308.566 572.781,306.798 571.118,302.961C569.454,299.119 571.219,294.647 575.061,292.983C578.898,291.32 583.363,293.089 585.026,296.926C586.69,300.768 584.924,305.239 581.083,306.904ZM604.416,296.795C600.578,298.458 596.114,296.689 594.451,292.852C592.787,289.01 594.552,284.539 598.394,282.874C602.231,281.212 606.696,282.98 608.358,286.817C610.023,290.659 608.257,295.131 604.416,296.795ZM627.749,286.686C623.911,288.349 619.447,286.581 617.784,282.743C616.12,278.901 617.885,274.43 621.727,272.766C625.564,271.103 630.029,272.871 631.691,276.709C633.356,280.55 631.59,285.022 627.749,286.686ZM651.082,276.577C647.245,278.24 642.78,276.472 641.118,272.634C639.453,268.792 641.219,264.321 645.06,262.657C648.898,260.994 653.362,262.762 655.025,266.6C656.689,270.442 654.924,274.913 651.082,276.577ZM674.416,266.468C670.578,268.131 666.114,266.363 664.451,262.525C662.787,258.683 664.552,254.212 668.394,252.548C672.232,250.885 676.696,252.653 678.359,256.491C680.023,260.333 678.258,264.804 674.416,266.468ZM697.75,256.359C693.912,258.022 689.448,256.254 687.785,252.416C686.121,248.574 687.886,244.103 691.728,242.439C695.565,240.776 700.03,242.544 701.692,246.382C703.357,250.224 701.591,254.695 697.75,256.359Z" style="fill:rgb(124,124,124);stroke:rgb(124,124,124);stroke-width:5.28px;"/>
                </g>
                <g transform="matrix(0.355044,-0.0127333,-0.137847,-0.448733,2366.98,2835.11)">
                    <path d="M1195.82,365.325L1266.49,120.685" style="fill:none;stroke:rgb(35,31,32);stroke-width:42.44px;stroke-linecap:round;stroke-miterlimit:1.5;"/>
                </g>
                <g transform="matrix(0.477943,0,0,0.494594,2249.61,2574.98)">
                    <circle cx="1151.58" cy="383.858" r="34.194"/>
                    <path d="M1151.58,349.664C1170.45,349.664 1185.77,364.986 1185.77,383.858C1185.77,402.73 1170.45,418.052 1151.58,418.052C1132.7,418.052 1117.38,402.73 1117.38,383.858C1117.38,364.986 1132.7,349.664 1151.58,349.664ZM1151.58,383.07C1151.1,383.07 1150.64,383.382 1150.64,383.858C1150.64,384.335 1151.1,384.647 1151.58,384.647C1152.05,384.647 1152.51,384.335 1152.51,383.858C1152.51,383.382 1152.05,383.07 1151.58,383.07Z" style="fill:rgb(35,31,32);"/>
                </g>
            </g>
        </g>
    </g>
</svg>
