<?xml version="1.0" encoding="UTF-8" standalone="no"?>
<!DOCTYPE svg PUBLIC "-//W3C//DTD SVG 1.1//EN" "http://www.w3.org/Graphics/SVG/1.1/DTD/svg11.dtd">
<svg width="100%" height="100%" viewBox="0 0 360 360" version="1.1" xmlns="http://www.w3.org/2000/svg" xmlns:xlink="http://www.w3.org/1999/xlink" xml:space="preserve" xmlns:serif="http://www.serif.com/" style="fill-rule:evenodd;clip-rule:evenodd;stroke-linejoin:round;stroke-miterlimit:2;">
    <g transform="matrix(1,0,0,1,-3266,-3357)">
        <g id="hand-ntz-default" transform="matrix(1.11455,0,0,1.11455,27.078,-384.736)">
            <rect x="2906.04" y="3357.17" width="323" height="323" style="fill:none;"/>
            <g transform="matrix(3.10584e-19,-0.00507221,0.232452,1.42336e-17,2387.96,3390.76)">
                <path d="M4374.15,2928.44L3000,2928.44L3000,2919.56L4374.15,2919.56C4458.01,2914.39 4684.16,2910.68 4949.68,2910.68C5286.53,2910.68 5560,2916.65 5560,2924C5560,2931.35 5286.53,2937.32 4949.68,2937.32C4684.16,2937.32 4458.01,2933.61 4374.15,2928.44ZM4949.68,2919.56C4837.4,2919.56 4746.25,2921.55 4746.25,2924C4746.25,2926.45 4837.4,2928.44 4949.68,2928.44C5061.97,2928.44 5153.12,2926.45 5153.12,2924C5153.12,2921.55 5061.97,2919.56 4949.68,2919.56ZM4271.33,2957.61L3971.31,2957.26L3955.57,2963.82L3789.51,2963.62L3805.25,2957.07L3503.83,2956.73L3512.51,2953.12L3813.92,2953.46L3829.73,2946.88L3995.79,2947.07L3979.98,2953.65L4280,2953.99L4271.33,2957.61ZM3968.87,2883.23L4009.09,2899.97L3814.96,2900.2L3774.74,2883.45L3968.87,2883.23Z"/>
            </g>
        </g>
    </g>
</svg>
