<?xml version="1.0" encoding="UTF-8" standalone="no"?>
<!DOCTYPE svg PUBLIC "-//W3C//DTD SVG 1.1//EN" "http://www.w3.org/Graphics/SVG/1.1/DTD/svg11.dtd">
<svg width="100%" height="100%" viewBox="0 0 360 360" version="1.1" xmlns="http://www.w3.org/2000/svg" xmlns:xlink="http://www.w3.org/1999/xlink" xml:space="preserve" xmlns:serif="http://www.serif.com/" style="fill-rule:evenodd;clip-rule:evenodd;stroke-linejoin:round;stroke-miterlimit:2;">
    <g transform="matrix(1,0,0,1,-3986,-3357)">
        <g id="mustache-default" transform="matrix(1.11455,0,0,1.11455,747.078,-384.736)">
            <rect x="2906.04" y="3357.17" width="323" height="323" style="fill:none;"/>
            <g transform="matrix(0.580841,0,0,0.580841,637.299,1452.55)">
                <circle cx="4184" cy="3524" r="3.615"/>
            </g>
            <g transform="matrix(0.580841,0,0,0.580841,637.299,1444.56)">
                <circle cx="4184" cy="3524" r="3.615"/>
            </g>
            <g transform="matrix(0.580841,0,0,0.580841,637.299,1436.57)">
                <circle cx="4184" cy="3524" r="3.615"/>
            </g>
            <g transform="matrix(0.580841,0,0,0.580841,637.299,1428.59)">
                <circle cx="4184" cy="3524" r="3.615"/>
            </g>
            <g transform="matrix(0.580841,0,0,0.580841,637.299,1420.6)">
                <circle cx="4184" cy="3524" r="3.615"/>
            </g>
            <g transform="matrix(0.580841,0,0,0.580841,637.299,1412.61)">
                <circle cx="4184" cy="3524" r="3.615"/>
            </g>
            <g transform="matrix(0.580841,0,0,0.580841,637.299,1404.63)">
                <circle cx="4184" cy="3524" r="3.615"/>
            </g>
            <g transform="matrix(0.580841,0,0,0.580841,637.299,1396.64)">
                <circle cx="4184" cy="3524" r="3.615"/>
            </g>
            <g transform="matrix(0.580841,0,0,0.580841,637.299,1388.65)">
                <circle cx="4184" cy="3524" r="3.615"/>
            </g>
        </g>
    </g>
</svg>
