<?xml version="1.0" encoding="UTF-8" standalone="no"?>
<!DOCTYPE svg PUBLIC "-//W3C//DTD SVG 1.1//EN" "http://www.w3.org/Graphics/SVG/1.1/DTD/svg11.dtd">
<svg width="100%" height="100%" viewBox="0 0 24 25" version="1.1" xmlns="http://www.w3.org/2000/svg" xmlns:xlink="http://www.w3.org/1999/xlink" xml:space="preserve" xmlns:serif="http://www.serif.com/" style="fill-rule:evenodd;clip-rule:evenodd;stroke-linejoin:round;stroke-miterlimit:2;">
    <g transform="matrix(1,0,0,1,-2999,-4224)">
        <g id="geolocation" transform="matrix(0.0166431,0,0,0.0166667,2953.83,4224.04)">
            <rect x="2714.03" y="0" width="1442.04" height="1440" style="fill:none;"/>
            <g transform="matrix(2.42486,0,0,2.42143,2586.36,42.0014)">
                <path d="M443.79,299.14L541.45,299.14C548.29,299.14 554.61,295.492 558.032,289.57C561.45,283.644 561.45,276.347 558.032,270.422C554.61,264.5 548.29,260.851 541.45,260.851L443.79,260.851C440.001,242.476 430.911,225.613 417.645,212.347C404.379,199.081 387.516,189.992 369.141,186.202L369.141,88.542C369.141,81.703 365.493,75.382 359.571,71.96C353.645,68.542 346.348,68.542 340.423,71.96C334.501,75.382 330.852,81.703 330.852,88.542L330.852,186.202C312.477,189.992 295.614,199.081 282.348,212.347C269.082,225.613 259.993,242.476 256.203,260.851L158.543,260.851C151.704,260.851 145.383,264.5 141.961,270.422C138.543,276.347 138.543,283.645 141.961,289.57C145.383,295.492 151.704,299.14 158.543,299.14L256.203,299.14C259.993,317.515 269.082,334.378 282.348,347.644C295.614,360.91 312.477,369.999 330.852,373.789L330.852,471.449C330.852,478.289 334.501,484.609 340.423,488.031C346.349,491.449 353.646,491.449 359.571,488.031C365.493,484.609 369.141,478.289 369.141,471.449L369.141,373.789C387.516,370 404.379,360.91 417.645,347.644C430.911,334.378 440,317.515 443.79,299.14ZM349.997,337.433C334.763,337.433 320.153,331.378 309.384,320.609C298.615,309.84 292.56,295.23 292.56,279.996C292.56,264.762 298.615,250.152 309.384,239.383C320.153,228.614 334.763,222.559 349.997,222.559C365.231,222.559 379.841,228.614 390.61,239.383C401.379,250.152 407.434,264.762 407.434,279.996C407.414,295.223 401.36,309.824 390.59,320.59C379.824,331.36 365.223,337.414 349.996,337.434L349.997,337.433Z" style="fill:white;fill-rule:nonzero;"/>
                <path d="M120.26,184.68C125.338,184.68 130.205,182.664 133.795,179.075C137.385,175.485 139.404,170.614 139.404,165.536L139.404,88.544C139.412,83.469 141.428,78.602 145.018,75.013C148.608,71.423 153.475,69.407 158.549,69.399L236.459,69.399C243.299,69.399 249.619,65.751 253.037,59.825C256.459,53.903 256.459,46.602 253.037,40.68C249.619,34.758 243.298,31.106 236.459,31.106L158.549,31.106C143.322,31.125 128.721,37.18 117.955,47.95C107.185,58.716 101.131,73.317 101.111,88.544L101.111,165.536C101.115,170.614 103.13,175.485 106.72,179.075C110.31,182.665 115.181,184.68 120.259,184.68L120.26,184.68Z" style="fill:white;fill-rule:nonzero;"/>
                <path d="M234.62,490.6L158.542,490.6C153.468,490.592 148.601,488.577 145.011,484.987C141.421,481.397 139.406,476.53 139.398,471.456L139.398,396.503C139.398,389.663 135.749,383.343 129.824,379.921C123.902,376.503 116.601,376.503 110.679,379.921C104.757,383.343 101.104,389.663 101.104,396.503L101.104,471.456C101.124,486.683 107.179,501.284 117.948,512.05C128.714,522.82 143.315,528.874 158.542,528.894L234.62,528.894C241.46,528.894 247.78,525.241 251.198,519.32C254.62,513.398 254.62,506.097 251.198,500.175C247.78,494.249 241.46,490.6 234.62,490.6L234.62,490.6Z" style="fill:white;fill-rule:nonzero;"/>
                <path d="M579.74,376.44C574.662,376.44 569.795,378.456 566.205,382.046C562.615,385.639 560.596,390.506 560.596,395.585L560.596,471.455C560.588,476.53 558.572,481.397 554.982,484.986C551.392,488.576 546.525,490.592 541.451,490.6L465.58,490.6C458.741,490.6 452.42,494.248 449.002,500.174C445.58,506.096 445.58,513.397 449.002,519.319C452.42,525.241 458.741,528.893 465.58,528.893L541.451,528.893C556.678,528.874 571.279,522.819 582.045,512.049C592.815,501.283 598.869,486.682 598.889,471.455L598.889,395.584C598.885,390.506 596.87,385.639 593.28,382.045C589.69,378.455 584.819,376.44 579.741,376.44L579.74,376.44Z" style="fill:white;fill-rule:nonzero;"/>
                <path d="M541.45,31.109L465.579,31.109C458.739,31.109 452.419,34.761 449.001,40.683C445.579,46.605 445.579,53.906 449.001,59.828C452.419,65.754 458.739,69.402 465.579,69.402L541.45,69.402C546.524,69.41 551.391,71.426 554.981,75.016C558.571,78.606 560.587,83.473 560.594,88.547L560.594,165.539C560.594,172.379 564.243,178.699 570.169,182.121C576.09,185.539 583.391,185.539 589.314,182.121C595.235,178.699 598.888,172.379 598.888,165.539L598.888,88.547C598.868,73.32 592.814,58.719 582.044,47.953C571.278,37.183 556.677,31.129 541.45,31.109L541.45,31.109Z" style="fill:white;fill-rule:nonzero;"/>
            </g>
        </g>
    </g>
</svg>
