<?xml version="1.0" encoding="UTF-8" standalone="no"?>
<!DOCTYPE svg PUBLIC "-//W3C//DTD SVG 1.1//EN" "http://www.w3.org/Graphics/SVG/1.1/DTD/svg11.dtd">
<svg width="100%" height="100%" viewBox="0 0 24 25" version="1.1" xmlns="http://www.w3.org/2000/svg" xmlns:xlink="http://www.w3.org/1999/xlink" xml:space="preserve" xmlns:serif="http://www.serif.com/" style="fill-rule:evenodd;clip-rule:evenodd;stroke-linejoin:round;stroke-miterlimit:2;">
    <g transform="matrix(1,0,0,1,-2999,-4000)">
        <g id="reticule" transform="matrix(0.0166431,0,0,0.0166667,2953.83,4000.04)">
            <rect x="2714.03" y="0" width="1442.04" height="1440" style="fill:none;"/>
            <clipPath id="_clip1">
                <rect x="2714.03" y="0" width="1442.04" height="1440"/>
            </clipPath>
            <g clip-path="url(#_clip1)">
                <g transform="matrix(2.86117,0,0,2.85711,2426.75,-79.9883)">
                    <path d="M343.94,124.25L343.94,36.465C343.94,31.789 347.733,27.996 352.409,27.996C357.081,27.996 360.87,31.789 360.87,36.465L360.87,124.25C440.229,128.5 503.91,192.184 508.16,271.53L595.945,271.53C600.617,271.53 604.413,275.327 604.413,279.999C604.413,284.671 600.617,288.468 595.945,288.468L508.16,288.468C503.902,367.82 440.226,431.498 360.87,435.748L360.87,523.533C360.87,528.208 357.077,532.001 352.409,532.001C347.733,532.001 343.94,528.208 343.94,523.533L343.94,435.748C264.581,431.498 200.9,367.814 196.65,288.468L108.865,288.468C104.193,288.468 100.404,284.671 100.404,279.999C100.404,275.327 104.197,271.53 108.865,271.53L196.65,271.53C200.908,192.178 264.584,128.5 343.94,124.25ZM475.29,288.46L360.87,288.46L360.87,402.88C422.116,398.708 471.12,349.696 475.29,288.46ZM343.94,402.88L343.94,288.46L229.52,288.46C233.688,349.702 282.696,398.71 343.94,402.88ZM343.94,157.11C282.694,161.282 233.69,210.294 229.52,271.53L343.94,271.53L343.94,157.11ZM360.87,157.11L360.87,271.53L475.29,271.53C471.122,210.288 422.114,161.28 360.87,157.11Z" style="fill:rgb(31,22,74);"/>
                </g>
            </g>
        </g>
    </g>
</svg>
