<?xml version="1.0" encoding="UTF-8" standalone="no"?>
<!DOCTYPE svg PUBLIC "-//W3C//DTD SVG 1.1//EN" "http://www.w3.org/Graphics/SVG/1.1/DTD/svg11.dtd">
<svg width="100%" height="100%" viewBox="0 0 48 48" version="1.1" xmlns="http://www.w3.org/2000/svg" xmlns:xlink="http://www.w3.org/1999/xlink" xml:space="preserve" xmlns:serif="http://www.serif.com/" style="fill-rule:evenodd;clip-rule:evenodd;stroke-linejoin:round;stroke-miterlimit:2;">
    <g transform="matrix(1,0,0,1,0,-1060)">
        <g id="favicon" transform="matrix(0.216216,0,0,0.208041,-581.405,508.841)">
            <rect x="2689" y="2649.28" width="222" height="230.723" style="fill:none;"/>
            <clipPath id="_clip1">
                <rect x="2689" y="2649.28" width="222" height="230.723"/>
            </clipPath>
            <g clip-path="url(#_clip1)">
                <g transform="matrix(0.115625,0,0,0.213633,2493.94,2309.6)">
                    <path d="M1687,1590L3607,1590L3607,2670L1687,2670L1687,1590" style="fill:none;"/>
                </g>
                <g transform="matrix(0.656351,0,0,0.677202,836.397,-245.682)">
                    <circle cx="2991.7" cy="4444" r="161.695" style="fill:rgb(255,228,0);"/>
                </g>
                <g transform="matrix(0.0165269,0,0,0.0170762,2744.35,2722.13)">
                    <g transform="matrix(29.9695,-0.30083,0.301257,29.9271,-12307.1,-7152.85)">
                        <path d="M656.57,334.878L384.673,332.145C380.106,332.099 376.447,328.343 376.493,323.776C376.538,319.209 380.273,315.527 384.84,315.573L656.737,318.306C661.304,318.352 664.963,322.108 664.917,326.675C664.871,331.242 661.137,334.924 656.57,334.878ZM366.636,262.278C361.989,260.054 360.031,254.472 362.255,249.825C364.471,245.195 370.026,243.226 374.655,245.442C379.302,247.666 381.26,253.248 379.036,257.894C376.82,262.524 371.265,264.493 366.636,262.278ZM389.573,273.256C384.927,271.032 382.969,265.45 385.193,260.803C387.409,256.173 392.963,254.204 397.593,256.42C402.24,258.644 404.197,264.226 401.974,268.872C399.758,273.502 394.203,275.471 389.573,273.256ZM412.511,284.234C407.864,282.01 405.906,276.428 408.13,271.781C410.346,267.151 415.901,265.182 420.531,267.398C425.177,269.622 427.135,275.204 424.911,279.85C422.695,284.48 417.14,286.449 412.511,284.234ZM435.448,295.211C430.801,292.987 428.843,287.406 431.067,282.759C433.283,278.129 438.838,276.16 443.467,278.376C448.114,280.6 450.072,286.181 447.848,290.828C445.632,295.458 440.077,297.427 435.448,295.211ZM458.385,306.189C453.738,303.965 451.78,298.383 454.004,293.736C456.22,289.107 461.775,287.137 466.404,289.353C471.051,291.577 473.009,297.159 470.785,301.806C468.569,306.435 463.014,308.404 458.385,306.189ZM573.072,361.079C568.425,358.855 566.467,353.273 568.691,348.626C570.907,343.996 576.462,342.027 581.092,344.243C585.738,346.467 587.696,352.049 585.472,356.695C583.256,361.325 577.702,363.294 573.072,361.079ZM596.009,372.056C591.362,369.832 589.404,364.251 591.628,359.604C593.844,354.974 599.399,353.005 604.029,355.221C608.675,357.445 610.633,363.026 608.409,367.673C606.193,372.303 600.639,374.272 596.009,372.056ZM618.946,383.034C614.299,380.81 612.341,375.228 614.565,370.582C616.781,365.952 622.336,363.983 626.966,366.198C631.612,368.422 633.57,374.004 631.346,378.651C629.13,383.281 623.576,385.25 618.946,383.034ZM641.883,394.012C637.236,391.788 635.279,386.206 637.503,381.56C639.719,376.93 645.273,374.96 649.903,377.176C654.55,379.4 656.507,384.982 654.283,389.629C652.068,394.258 646.513,396.228 641.883,394.012ZM664.821,404.99C660.174,402.766 658.217,397.184 660.441,392.538C662.656,387.908 668.211,385.939 672.841,388.154C677.487,390.378 679.445,395.96 677.221,400.607C675.005,405.236 669.451,407.206 664.821,404.99ZM371.763,399.486C367.053,401.526 361.576,399.35 359.535,394.64C357.488,389.913 359.653,384.409 364.38,382.361C369.09,380.32 374.567,382.497 376.607,387.207C378.655,391.934 376.489,397.438 371.763,399.486ZM395.097,389.377C390.387,391.417 384.91,389.24 382.869,384.531C380.821,379.804 382.987,374.3 387.713,372.252C392.423,370.211 397.9,372.388 399.941,377.098C401.989,381.825 399.823,387.329 395.097,389.377ZM418.43,379.268C413.72,381.308 408.243,379.132 406.203,374.422C404.155,369.695 406.32,364.191 411.047,362.143C415.757,360.103 421.234,362.279 423.274,366.989C425.322,371.716 423.157,377.22 418.43,379.268ZM441.763,369.159C437.053,371.2 431.576,369.023 429.536,364.313C427.488,359.586 429.653,354.082 434.38,352.034C439.09,349.994 444.567,352.171 446.607,356.881C448.655,361.607 446.49,367.111 441.763,369.159ZM465.096,359.051C460.386,361.091 454.909,358.914 452.869,354.204C450.821,349.478 452.986,343.973 457.713,341.926C462.423,339.885 467.9,342.062 469.94,346.772C471.988,351.499 469.823,357.003 465.096,359.051ZM581.763,308.506C577.054,310.546 571.576,308.369 569.536,303.66C567.488,298.933 569.653,293.429 574.38,291.381C579.09,289.34 584.567,291.517 586.608,296.227C588.655,300.954 586.49,306.458 581.763,308.506ZM605.096,298.397C600.386,300.438 594.91,298.261 592.869,293.551C590.821,288.824 592.986,283.32 597.713,281.272C602.423,279.232 607.9,281.409 609.941,286.119C611.988,290.845 609.823,296.349 605.096,298.397ZM628.429,288.288C623.719,290.329 618.242,288.152 616.202,283.442C614.154,278.715 616.319,273.211 621.046,271.163C625.756,269.123 631.233,271.3 633.274,276.01C635.321,280.736 633.156,286.241 628.429,288.288ZM651.763,278.18C647.053,280.22 641.576,278.043 639.535,273.333C637.488,268.606 639.653,263.102 644.38,261.055C649.09,259.014 654.566,261.191 656.607,265.901C658.655,270.628 656.49,276.132 651.763,278.18ZM675.097,268.071C670.387,270.111 664.91,267.934 662.869,263.224C660.821,258.497 662.987,252.993 667.713,250.945C672.423,248.905 677.9,251.082 679.941,255.792C681.988,260.519 679.823,266.023 675.097,268.071Z" style="stroke:black;stroke-width:5.28px;"/>
                    </g>
                    <g transform="matrix(21.8016,-0.754499,-8.46455,-26.5893,-23222.7,6588.04)">
                        <path d="M1216.23,336.284L1266.49,120.685" style="fill:none;stroke:rgb(35,31,32);stroke-width:45.75px;stroke-linecap:round;stroke-miterlimit:1.5;"/>
                    </g>
                    <g transform="matrix(31.4394,0,0,31.3949,-32837.7,-9627.63)">
                        <circle cx="1151.58" cy="383.858" r="34.194"/>
                        <path d="M1151.58,349.664C1170.45,349.664 1185.77,364.986 1185.77,383.858C1185.77,402.73 1170.45,418.052 1151.58,418.052C1132.7,418.052 1117.38,402.73 1117.38,383.858C1117.38,364.986 1132.7,349.664 1151.58,349.664ZM1151.58,383.12C1151.1,383.12 1150.59,383.379 1150.59,383.858C1150.59,384.338 1151.1,384.597 1151.58,384.597C1152.06,384.597 1152.56,384.338 1152.56,383.858C1152.56,383.379 1152.06,383.12 1151.58,383.12Z" style="fill:rgb(35,31,32);"/>
                    </g>
                </g>
            </g>
        </g>
    </g>
</svg>
